<svg width="72" height="72" viewBox="0 0 1272 1272" fill="#FFC89D" xmlns="http://www.w3.org/2000/svg">
<path d="M1215.85 1216.97C1215.83 1214.6 1215.82 1212.2 1215.81 1209.75C1215.81 1203 1215.79 1195.81 1215.78 1188.43C1215.79 1176.2 1215.81 1163.31 1215.82 1151.37C1215.81 1127.51 1215.49 1107.44 1213.79 1104.09C1214.38 1065.01 1213.94 1014 1215.09 969.4C1214.9 971.253 1214.53 974.853 1214.26 973.813L1216.02 940.4C1216.22 943.627 1216.47 945.573 1216.9 944.24C1216.77 944.28 1216.66 943.947 1216.58 943.36L1216.98 936.253V979.667L1216.77 978.8L1216.98 981.88V1216.97H1215.85ZM1216.29 935.373L1216.49 942.573C1216.35 941.2 1216.27 939.133 1216.21 936.827L1216.29 935.373ZM1211.5 916.067C1213.41 934.16 1209.53 939.213 1211.7 958.347C1211.62 981.307 1210.47 974.133 1209.73 981.44C1209.77 973.04 1209.53 972.253 1209.21 973.187C1209.29 948.48 1209.77 919.56 1208.9 910.107L1208.97 927.027L1208.67 922.827C1208.63 916.48 1208.17 911.48 1208.04 904.587C1208.07 907.48 1208.07 910.533 1208.03 913.733L1206.22 888.427C1206.6 887.787 1206.49 881.373 1206.35 874.333C1206.56 876.88 1206.78 879.587 1207.02 882.493C1207.19 884.307 1207.33 886.227 1207.46 888.227C1207.48 889.093 1207.5 889.973 1207.52 890.827C1207.54 890.72 1207.56 890.533 1207.59 890.307C1207.82 894.453 1207.97 898.973 1208.03 903.96C1207.96 899.213 1208.05 893.573 1208.54 885.933L1211.1 927.4C1211.71 906.573 1209.02 903.4 1209.74 877.92C1211.45 879.627 1212.34 878.08 1213.33 905.027L1212.55 902.253C1212.62 903.307 1212.85 907.453 1213.18 911C1212.7 924.453 1212.26 905.2 1211.5 916.067ZM1211.78 1186.59C1211.67 1190.15 1211.67 1193.63 1211.71 1196.97C1211.75 1198.97 1211.78 1200.92 1211.82 1202.83C1211.86 1205.01 1211.91 1207.15 1211.97 1209.2C1212.05 1211.75 1212.13 1214.17 1212.21 1216.48C1211.9 1216.47 1211.59 1216.45 1211.29 1216.45C1211.21 1210.47 1211.13 1204.24 1211.03 1197.71C1210.9 1189.19 1210.83 1179.99 1210.85 1169.93C1212.15 1182.97 1213.86 1132.88 1213.89 1177.03C1213.3 1164.32 1212.42 1184.04 1211.78 1186.59ZM1211.3 1216.97C1211.3 1216.87 1211.3 1216.77 1211.3 1216.67L1212.21 1216.64C1212.21 1216.75 1212.22 1216.87 1212.22 1216.97H1211.3ZM55.7305 1213.59C55.7265 1213.31 55.7225 1213.01 55.7185 1212.73L55.8665 1212.75C55.8825 1214.12 55.9012 1215.53 55.9212 1216.97H55.7852C55.7665 1215.87 55.7479 1214.73 55.7305 1213.59ZM1208.18 1000.83C1208.2 994.64 1208.15 988.387 1208.03 982.88C1208.49 986.8 1209.03 990.053 1208.58 1000.15L1208.18 1000.83ZM1208.73 1161.33L1209.91 1153.25L1208.62 1140.27C1207.96 1154.89 1206.7 1185.71 1205.38 1192.36C1205.83 1158 1205.41 1105.52 1202.85 1041.76C1202.85 1041.76 1203.12 1042.81 1203.19 1045.76C1203.49 1013.23 1203.41 1010.35 1203.42 984.467L1204.11 992.467C1204.51 990.813 1204.64 987 1204.65 981.84C1205.09 992.987 1205.87 1001.09 1206.51 1010.23C1205.8 1029.95 1204.87 1062.71 1205.67 1084.24C1207 1063.71 1206.7 1096.2 1207.8 1092.85C1206.28 1089.29 1207.65 1061.12 1208.36 1061.44C1208.55 1076.57 1208.52 1112.99 1208.13 1125.01L1209.31 1096.36C1210.09 1107.25 1211.39 1146.19 1211.65 1147.25C1210.79 1159.39 1210.83 1177.57 1209.81 1183.87L1208.73 1161.33ZM66.4825 1213C66.5105 1214.36 66.5385 1215.69 66.5665 1216.97H65.8799C65.8585 1215.64 65.8385 1214.31 65.8185 1212.99L66.4825 1213ZM65.8025 1211.88L66.4585 1211.89C66.4652 1212.23 66.4719 1212.55 66.4799 1212.88C66.2585 1212.88 66.0372 1212.87 65.8172 1212.87C65.8119 1212.53 65.8079 1212.2 65.8025 1211.88ZM55.7039 1211.77L55.8559 1211.79C55.8585 1212.01 55.8612 1212.24 55.8639 1212.48C55.8145 1212.47 55.7639 1212.47 55.7145 1212.47C55.7105 1212.24 55.7065 1212.01 55.7039 1211.77ZM1198.28 730.613C1198.33 731 1198.36 731.373 1198.41 731.773L1198.43 727.067C1198.7 730.867 1199.16 738.64 1199.62 744.987L1199.39 750.587C1198.63 744.28 1198.39 737.387 1198.28 730.613ZM84.6612 356.4L84.8905 339.213C85.0305 345.92 85.0425 352.32 84.6612 356.4ZM78.0745 588.947C77.7572 590.28 77.5025 589.44 77.0519 585.133C77.3759 579.067 77.7239 583.733 78.0745 588.947ZM747.599 1216.97C757.493 1216.83 767.391 1216.79 777.144 1216.83C777.54 1216.88 777.909 1216.93 778.239 1216.97H747.599ZM635.092 1216.97C656.356 1216.28 677.914 1215.64 703.35 1215.97C696.733 1217.08 679.561 1216.59 678.832 1216.97H635.092ZM72.1079 1211.95C72.1105 1212.32 72.1132 1212.71 72.1159 1213.09C71.6612 1213.07 71.1972 1213.05 70.7452 1213.04C70.7625 1212.67 70.7799 1212.31 70.7985 1211.93L72.1079 1211.95ZM65.7159 1204.88C65.9159 1204.89 66.1199 1204.89 66.3212 1204.91C66.3345 1205.72 66.3492 1206.56 66.3625 1207.36C66.3865 1208.49 66.4092 1209.59 66.4332 1210.67C66.2145 1210.67 66.0012 1210.68 65.7865 1210.68C65.7599 1208.71 65.7359 1206.77 65.7159 1204.88ZM55.4225 1192.87C55.2932 1184.89 55.1092 1176.51 54.7705 1168.48V1095.27C55.7479 1095.8 56.7065 1085.77 57.3625 1109.36C57.5479 1121.8 56.5025 1110.88 56.0665 1111.68C57.1239 1142.53 56.8105 1158.72 56.3879 1172.83C56.1759 1179.88 55.9359 1186.43 55.8265 1194.03C55.8105 1196 55.7932 1198.05 55.7759 1200.2C55.7959 1203.37 55.8172 1206.68 55.8385 1210.17C55.8399 1210.36 55.8425 1210.56 55.8452 1210.75C55.7932 1210.75 55.7399 1210.75 55.6879 1210.75C55.6039 1205.12 55.5145 1199.09 55.4225 1192.87ZM54.7705 803.187C55.0905 796.44 55.3919 789.56 55.8025 800.32C56.3025 793.813 55.6225 775.56 54.8479 769.293L55.5865 773.693C54.6892 762.053 55.0825 752.587 55.7412 749.507C56.1172 765.227 57.5572 753.88 56.9719 776.08C56.6972 775.053 56.5292 776.827 56.5919 772.16C56.0199 782.227 55.9799 806.733 56.8572 817.36C57.2119 801.613 57.1972 813.733 57.4452 795.04C57.5932 795.12 57.7545 796.08 57.9092 797.733C57.8225 804.973 57.9492 812.92 58.5812 812.827C58.5892 813.267 58.5972 813.707 58.6039 814.16C58.6105 818.013 58.6185 821.853 58.6292 825.693C58.5865 829.587 58.4919 833.64 58.3265 837.693C56.5332 808.773 56.5692 860.48 55.5919 846.92C55.4105 892.853 57.8199 919.213 59.4879 957.507C59.5145 962.08 59.5305 966.76 59.5399 971.507L54.7705 954.133V803.187ZM68.1972 308.92C68.1652 298.653 68.3399 290.08 69.1719 285.293C69.2959 293.853 69.2172 301.693 70.0785 332.6L68.1972 308.92ZM68.3252 323.853C68.7945 330.973 69.5092 336.027 69.5332 344.72C69.3492 344.093 68.8919 345.133 68.4585 342.773C68.4625 336.467 68.3945 330.04 68.3252 323.853ZM67.8625 292.787C67.8785 293.627 67.8852 293.933 67.9039 294.813C67.8972 301.533 67.8132 305.147 67.7025 307.053C67.7572 302.147 67.8092 297.467 67.8625 292.787ZM68.4265 262.6C68.3465 262.84 68.2652 263.067 68.1812 263.28C68.1999 261.613 68.2172 259.96 68.2345 258.32C68.3039 259.827 68.3665 261.253 68.4265 262.6ZM57.2265 109.333L57.3905 117.707L57.1439 113.84C57.1132 111.693 57.1505 110.293 57.2265 109.333ZM54.7705 511.387V505.96C54.8092 507.587 54.8545 509.213 54.9039 510.813C54.8599 511.013 54.8159 511.2 54.7705 511.387ZM54.9745 601.947L54.8065 592.133C54.9439 594.2 55.0652 596.173 55.1732 598.067C55.1052 599.587 55.0399 600.92 54.9745 601.947ZM54.7705 624.933C54.9585 629.773 55.2132 634.173 55.4812 638.413C55.2372 643.893 54.9572 649.253 54.8319 655.68C54.8105 655.813 54.7905 655.92 54.7705 656.013V624.933ZM55.0132 677.853C54.9279 676.8 54.8465 675.96 54.7705 675.4V673.107C54.8492 674.72 54.9292 676.307 55.0132 677.853C55.0385 678.147 55.0639 678.467 55.0905 678.813C55.0759 678.693 55.0639 678.613 55.0492 678.493C55.0372 678.28 55.0252 678.067 55.0132 677.853ZM61.0119 1115.56C60.6599 1111.49 60.3319 1098.49 60.3972 1090.01C60.4505 1091.44 60.5065 1092.84 60.5665 1094.21L60.6292 1089.55L61.6505 1110.64C61.6465 1114.52 61.4532 1115.95 61.2079 1116.71C61.1439 1116.29 61.0785 1115.91 61.0119 1115.56ZM54.7705 728.813V678.627C55.0052 681.147 55.1759 683.453 55.4959 686.28C55.3812 684.267 55.2412 681.84 55.1025 679.4L55.3105 681.947C55.6652 687.387 56.0852 695.44 56.5452 703.987C56.4359 709.427 56.4345 715.947 56.4372 722.36C56.3959 721.547 56.3572 720.76 56.3132 719.933L56.4385 725.027C56.4385 732.067 56.4225 738.733 56.2439 743.413L54.7705 728.813ZM54.7705 1024.35C55.0745 1024.01 54.4305 1002.07 55.3612 1012.72C55.4372 1041.21 58.8945 1030.25 58.1399 1074.56C57.8732 1073.59 57.4545 1074.55 57.0199 1073.37C56.7559 1066.87 56.4839 1061.36 56.0692 1065.43C55.9025 1062.56 55.7492 1058.73 55.6212 1053.6L54.8132 1078.95C54.7985 1078.55 54.7852 1078.19 54.7705 1077.8V1024.35ZM54.7705 1190.35C54.8372 1191.64 54.9039 1192.93 54.9705 1194.2C55.0132 1195.16 55.0559 1196.11 55.0972 1197.05C55.1332 1198.07 55.1692 1199.08 55.2039 1200.08C55.2799 1202.99 55.3332 1205.83 55.3545 1208.61C55.2185 1206.15 55.0972 1203.93 54.9905 1202C54.9305 1201.05 54.8745 1200.17 54.8239 1199.36C54.8039 1199.16 54.7892 1199 54.7705 1198.83V1190.35ZM72.0599 1205.09C72.0732 1206.95 72.0852 1208.8 72.0985 1210.68C71.6839 1210.68 71.2719 1210.68 70.8599 1210.68C70.9492 1208.85 71.0412 1206.99 71.1359 1205.07C71.4452 1205.07 71.7505 1205.08 72.0599 1205.09ZM75.7279 631.787C75.8145 634.84 75.9052 637.853 76.0039 640.813C75.8585 641.453 75.6719 641.773 75.4185 641.32C75.6012 638.92 75.6905 635.533 75.7279 631.787ZM81.2212 747.08C80.9092 741.12 80.5105 729.32 80.1879 719.107C80.7439 727.44 81.3052 735.747 81.8519 744.173L81.2212 747.08ZM83.5705 872.68C83.0319 869.333 82.6385 864.827 82.3399 859.533C83.2119 839.533 84.1852 823.693 83.4612 797.773L83.5705 796.6L82.9279 779.347L83.1825 789.48C83.1479 788.587 83.1132 787.693 83.0745 786.773C82.7692 780.947 84.0185 813.68 82.8479 809.48C81.2079 787.493 82.4079 775.893 82.9599 761.933C83.6639 773.747 84.3119 785.973 84.8492 799C83.5105 801.267 83.8852 849.32 83.5705 872.68ZM82.3919 918.467C82.5879 921.413 82.7652 924.293 82.8839 927.533C82.7225 924.64 82.5519 921.6 82.3919 918.467ZM79.4959 951.733C79.4585 953.96 79.4465 956.04 79.4585 957.987C79.3799 955.88 79.2879 953.787 79.1772 951.72L79.4959 951.733ZM83.9905 901.093C83.8359 907.813 83.5105 905.813 83.1332 901.453C83.3879 901.28 83.6559 900.667 83.9905 901.093ZM84.0372 898.333C83.2785 891.253 82.5585 889.32 82.0145 888.067C81.8385 886.6 81.6772 885.987 81.5439 886.907C81.5132 886.813 81.4839 886.707 81.4559 886.6C81.5385 882.373 81.6439 878.427 81.7625 874.667L84.0612 879.453C84.1012 888.173 84.0879 894.253 84.0372 898.333ZM80.0785 914.56C80.3252 922.76 80.8385 932.613 81.4425 941.6C80.9359 936.493 80.0399 940.24 79.8252 924.707C79.9039 925.933 79.9972 927.28 80.1159 928.827L80.0785 914.56ZM79.6545 926.533C79.4465 920.92 79.3119 914.253 79.2265 907C79.3092 905.84 79.3865 904.52 79.4612 903.013C79.4932 913.667 79.4225 917.347 79.7052 922.68L79.6545 926.533ZM81.3292 822.733C81.0985 807.987 80.8759 793.373 80.1612 783.147L80.7145 773.48L81.0585 793.52L81.5919 776.64C82.1852 803.853 82.5599 833.893 82.1732 856.24C81.7892 848.027 81.5919 838.333 81.4319 828.44C81.3839 839.733 81.3012 859.16 81.2385 873.573L81.5879 874.307C81.4972 875.973 81.3985 877.56 81.2879 879C80.5439 866.573 80.0385 851.013 79.5559 835.427C80.0385 831.933 80.3505 820.213 81.3292 822.733ZM75.5919 935.04C75.3972 929.32 75.1999 923.493 75.0025 917.653C75.6599 909.92 74.6612 883.88 76.3892 894.107C76.9665 891.453 77.4239 900.187 77.3079 911.587C77.1692 913.333 77.0185 910.507 76.8772 912.32C77.4385 914.36 78.0545 915.653 78.6052 912.747C78.8145 928.627 78.5025 947.387 78.4052 962.907L75.5919 935.04ZM80.9159 1100.77C81.0279 1111.88 81.2932 1122.44 81.8585 1131.31C82.3079 1135.43 82.7959 1137.92 83.3172 1139.32L83.9212 1154.32L82.9265 1162.47C83.0785 1172.96 83.1759 1182.41 83.3505 1190.96C83.0919 1190.96 82.8385 1190.96 82.5785 1190.96C81.7825 1190.97 80.9679 1190.96 80.1639 1190.95C79.7919 1175.64 78.5732 1152.79 79.6999 1150.69C79.2385 1142 78.4492 1117.96 78.0812 1142.47L76.6625 1102.07C78.8999 1108.04 79.0385 1077.99 80.9159 1100.77ZM80.4825 1072.15C80.5919 1073.32 80.7159 1074.27 80.8679 1074.92C80.8572 1077.64 80.8505 1080.39 80.8479 1083.13C80.8039 1083.39 80.7519 1083.6 80.6785 1083.75C80.5425 1079.87 80.3932 1075.63 80.2319 1071.05C80.3145 1071.43 80.3972 1071.68 80.4825 1072.15ZM80.8479 1088.57C80.7945 1087.03 80.7372 1085.43 80.6785 1083.75C80.7359 1084.16 80.7919 1084.55 80.8465 1084.91C80.8452 1086.13 80.8465 1087.35 80.8479 1088.57ZM85.3585 1140.64C85.6852 1149.97 85.9505 1157.8 85.3919 1159.67C85.1399 1149.37 84.8199 1144.11 84.4799 1140.87C84.7665 1140.93 85.0585 1140.84 85.3585 1140.64ZM166.713 1203.48C170.099 1203.53 173.572 1203.59 177.075 1203.65C172.688 1203.69 168.739 1203.71 166.713 1203.48ZM562.615 1216.88L562.768 1216.97H557.275C559.084 1216.95 560.872 1216.92 562.615 1216.88ZM90.8532 1205.63C98.6319 1205.83 106.471 1205.96 114.163 1206.03C115.857 1206.04 117.541 1206.04 119.22 1206.05C109.021 1207.27 96.1372 1208.69 95.8825 1209.12C95.8185 1209.12 95.7545 1209.12 95.6905 1209.12C93.9159 1209.12 92.1345 1209.12 90.3465 1209.12C87.4532 1209.09 84.5479 1209.08 81.6305 1209.05C83.8532 1209.16 85.8865 1209.25 87.7785 1209.35C87.4012 1209.36 87.0372 1209.36 86.6545 1209.37C84.4439 1209.44 82.1279 1209.47 79.8839 1209.48C79.8559 1208.07 79.8425 1206.68 79.8385 1205.32C83.4972 1205.43 87.1665 1205.52 90.8532 1205.63ZM422.285 1209.95C414.084 1209.93 412.912 1210.89 414.771 1212.25C405.915 1211.84 397.587 1211.47 389.179 1211.4C395.624 1210.79 399.817 1209.95 412.164 1209.88L346.996 1209.4L352.049 1208.75L326.377 1209.69C340.86 1209.32 363.252 1209.71 357.771 1211.15C328.625 1212.21 312.111 1210.68 287.399 1212.53C287.499 1210.89 284.219 1210.13 283.803 1209.41C304.265 1208.53 334.272 1208.13 358.325 1207.39C382.756 1209.17 409.857 1209.11 437.378 1210.12C432.632 1210.05 427.611 1210 422.285 1209.95ZM497.611 1212.27L499.286 1212.71C496.689 1212.48 493.881 1212.25 490.825 1212.04C493.093 1212.11 495.359 1212.19 497.611 1212.27ZM71.9305 1186.59C71.9412 1187.99 71.9505 1189.4 71.9599 1190.81C71.8945 1190.81 71.8292 1190.81 71.7639 1190.81C71.8199 1189.4 71.8745 1187.99 71.9305 1186.59ZM736.941 1215.69C700.961 1216.04 741.914 1216.25 736.719 1216.97H691.911C704.897 1216.56 709.198 1215.33 720.169 1215.21C723.56 1215.31 727.124 1215.36 730.84 1215.4C732.716 1215.47 734.729 1215.56 736.941 1215.69ZM87.3652 1138.65L87.0839 1142.33L86.9332 1139.08C87.0759 1138.93 87.2199 1138.79 87.3652 1138.65ZM85.8919 884.013C87.8292 891.4 88.0025 921.48 87.4785 939.107C85.6132 959.053 86.1119 921.667 84.2839 917.147C84.5865 938 84.9265 934.32 85.9665 943.173C85.5452 975.067 88.1199 1009.09 85.8599 1028.91L84.0759 994.987C84.8132 1000.01 84.3265 981.76 85.2199 989.733C85.0692 986.84 84.5945 973.333 84.3159 977.027L84.4785 984.747C82.4505 966.613 81.8159 974.973 80.2252 951.76L81.7865 951.8C81.7665 948.427 81.7079 946.013 81.6225 944.213C82.5425 957.253 83.6225 967.813 84.2879 967.547C82.5265 961.093 83.9439 947.507 84.0599 936.107C84.5185 944.84 85.7292 963.36 85.6919 949.147C84.9479 944.107 83.3945 905.48 83.1799 932.907C83.0999 931.4 83.0132 929.827 82.9212 928.2C82.0665 878.093 86.4572 935.693 85.8919 884.013ZM76.3705 611.213C76.0919 613.467 75.8665 617.133 75.7385 622.547C75.6745 609.64 75.3959 598.293 76.3705 611.213ZM71.9639 598.12L73.7879 628.28L73.7492 614.04C75.6465 618.613 74.3079 660.76 76.4772 656.92C75.2492 687.627 76.4372 696.72 75.3679 730.467C76.2599 738.44 76.0852 726.053 76.0559 716.52C76.1772 727.387 77.0985 731.72 77.5132 739.16C77.5545 741.387 77.6132 744.027 77.6932 747.16C77.5919 744.28 77.4212 746.093 77.3145 743.24C76.3012 765.613 77.9479 774.947 78.0599 793.693C77.6079 784.52 77.0652 776.8 76.3505 771.68C76.1279 774.587 76.4119 779.36 76.7212 784.64C76.6705 784.707 76.6225 785.427 76.5785 787.067C76.7305 792.52 76.7719 799.347 76.7745 806.64C76.7159 807.04 76.6639 807.44 76.5932 807.813L76.7732 809.027C76.7692 816.347 76.7332 824.027 76.7345 831.24C75.8705 819.573 75.0332 812.52 74.1599 802.387C74.1105 802.373 74.0665 802.24 74.0225 802.067C74.0399 801.813 74.0545 801.533 74.0705 801.267C74.0999 801.64 74.1305 802.027 74.1599 802.387C74.2359 802.427 74.3079 802.6 74.4039 802.16L74.1465 799.867C74.5745 790.467 74.0652 776.84 73.8799 771.853C73.9025 788.907 73.6665 784.853 73.7985 796.787L73.5439 794.533C73.5465 794.64 73.5465 794.68 73.5479 794.72C73.6399 795.88 73.7279 796.987 73.8132 798.053C73.8239 798.907 73.8345 799.827 73.8492 800.827C73.7252 799.507 73.6265 797.413 73.5479 794.72C73.5305 794.533 73.5212 794.413 73.5065 794.227L73.5439 794.533C73.2665 785.053 73.1585 769.547 72.6919 760.693C72.8079 749.453 73.6972 757.2 73.9892 758.387C74.7292 731.547 72.6599 710.507 71.4972 686.453C71.9159 672.267 72.6052 655.307 71.9079 636.613C72.8465 642.76 73.0652 680.373 74.1452 664.867L72.0785 629.707C72.1799 628.293 72.3039 628.24 72.4852 630.6C72.4492 617.827 71.9599 608.16 71.3505 599.52C71.7319 592.36 72.2572 585.947 72.5505 577.773C73.1345 574.44 73.3945 583.693 73.4359 592.467C73.0212 588.84 72.5372 586.493 71.9639 598.12ZM72.9412 157.013C73.5305 134.68 69.5812 136.827 71.8892 116.173C71.4505 114.827 71.1212 114.974 70.8692 116.173L70.4105 88.3468C72.0985 90.3601 72.1759 117.307 73.6585 125.4C74.1452 132.16 74.1559 164.12 72.9412 157.013ZM73.1212 435.427C72.6839 431.467 72.0732 415.773 71.6692 424.587C71.5785 423.64 71.4505 423.093 71.2732 423.173C71.2292 425.92 71.1852 428.693 71.1412 431.453C71.0159 429.293 70.8932 427.147 70.7759 425.067C70.9252 424.787 71.0905 424.173 71.2705 423.173C71.3625 416.933 71.4465 410.707 71.5252 404.493C72.7705 419.133 72.4559 399.947 73.0145 397.4C74.0492 403.56 73.9865 433.827 73.1212 435.427ZM73.8212 457.907C73.2345 461.88 72.4279 452.173 71.6612 440.053C71.8212 435.373 71.9065 430 71.7865 426.6L73.5879 442.667C73.5345 447.387 73.6305 453.08 73.8212 457.907ZM74.8025 499.533C74.8239 501.4 74.8479 503.28 74.8719 505.16C74.8212 503.067 74.7892 500.693 74.7825 497.907C74.7852 498.48 74.7932 499.013 74.8025 499.533ZM72.2692 485.8C72.3159 475.654 72.7865 469.227 73.1932 463.853C73.4745 463.64 73.6985 464.467 73.8812 466.093C74.3919 479.84 73.1105 489.227 72.2692 485.8ZM197.332 54.92C197.484 55.0134 194.099 55.3601 188.664 55.8534C183.228 56.3068 175.743 56.9468 167.696 57.6267C151.603 58.9333 133.264 60.3468 124.587 60.9468C114.108 61.0668 103.307 61.1201 93.4732 61.0934C88.9239 61.0533 84.5999 61.0134 80.6479 60.9868C76.7532 60.9335 73.1799 60.8534 70.0572 60.76C70.0452 61.16 70.0372 61.4268 70.0292 61.6934L69.9892 60.6934L74.9505 60.4801C80.8305 60.4801 86.1879 60.4667 91.0519 60.4667C96.2812 60.4401 100.98 60.4135 105.179 60.3867C113.576 60.3201 119.972 60.2134 124.613 60.0667C133.896 59.7733 136.159 59.3601 133.367 58.8268C130.575 58.2935 122.727 57.6533 111.789 56.9333C106.32 56.6001 100.079 56.2134 93.3119 55.8C91.4972 55.7067 89.6479 55.6001 87.7665 55.5068C85.7132 55.4001 83.6265 55.2933 81.5105 55.2001C78.5079 55.0533 75.4319 54.9067 72.3265 54.76H92.5972C102.667 54.8534 112.824 54.9335 123.047 55.0134C140.424 55.1735 157.972 55.3334 175.445 55.4934L171.36 54.76H195.996C196.444 54.8134 196.911 54.8534 197.332 54.92ZM197.851 60.4C204.732 60.3201 211.693 60.2268 218.663 60.1467C215.589 60.8268 220.097 61.5734 200.289 61.2001C201.784 60.8134 200.484 60.5734 197.851 60.4ZM296.74 64.2267C265.565 64.6801 252.315 64.9468 217.839 64.3468C213.739 62.8268 233.612 64.6934 241.467 63.9333L225.216 62.4135C232.696 62.3601 247.353 61.1068 246.765 62.5468C247.048 61.8268 258.799 60.6801 236.944 61.2534L253.351 60.16C252.457 59.9867 251.204 59.8534 249.76 59.7468C254.605 59.6802 259.589 59.6134 264.528 59.5468C270.721 60.0267 281.94 59.9734 291.52 61.1201C292.232 61.5601 281.94 61.7068 276.052 61.92C290.9 62.5601 304.155 62.3068 312.717 61.9735C289.372 61.6669 301.849 60.9601 296.74 59.7334C311.069 59.2001 334.4 59.5067 343.023 59.1868C362.831 59.7068 379.089 61.0934 365.904 62.2001C378.571 61.6134 391.859 62.2001 405.271 60.8934C380.279 62.3068 404.674 57.8267 372.864 59.7334C363.395 57.7201 399.712 58.4934 416.263 59.2935C407.677 59.6134 414.897 60.2935 412.82 60.8401C437.52 60.1602 425.895 58.6935 408.243 58.1735L423.107 57.6134C426.951 57.9067 432.382 58.1201 440.276 58.2135L437.477 57C441.249 56.9467 445.019 56.8934 448.747 56.8268L452.92 56.9868C451.756 56.92 450.635 56.8668 449.511 56.8135C454.109 56.7468 458.68 56.6667 463.216 56.6001C463.893 56.8934 464.47 57.1602 464.914 57.4135L452.92 56.9868C456.653 57.1467 460.628 57.3068 464.985 57.4534C466.876 58.5468 466.132 59.1735 459.652 58.8534L475.203 59.9333L451.507 60.3468C461.328 61.6401 477.767 60.5468 489.98 60.5735C503.676 61.4801 458.468 61.7467 443.519 63.7201C431.631 64.5868 407.388 63.7201 405.056 63.0402C400.915 64.8668 360.947 63.9867 345.248 65.0267C305.779 65.0801 319.261 62.2134 284.087 63.0535L296.74 64.2267ZM737.464 62.9333C740.318 62.9867 743.141 63.04 745.942 63.0934L731.053 63.6534C733.428 63.3867 735.542 63.1467 737.464 62.9333ZM932.8 57.8401L913.43 57.92C913.908 57.2001 900.505 55.6001 929.396 55.9333C934.205 56.52 934.67 57.1868 932.8 57.8401ZM1199.91 388.933C1200.01 365.56 1200.92 390.2 1201.55 378.32C1201.23 375.8 1201.03 373.547 1200.92 371.467C1200.9 368.867 1200.88 366.24 1200.86 363.6C1201.13 355.907 1202.14 349.707 1200.75 338.32C1200.76 332.067 1200.79 325.947 1200.88 320.12C1201.24 317.627 1201.76 317.88 1202.09 314C1202.13 316.84 1202.19 318.787 1202.26 320.093C1201.5 336.973 1202.03 349.613 1201.78 367.68L1201.74 367.16C1201.57 382.587 1203.08 388.147 1203.74 400.627C1203.37 403.56 1203.03 405.627 1202.8 406.907C1202.47 414.253 1201.95 411.893 1201.39 408.667C1200.93 404.92 1200.46 398.893 1199.91 388.933ZM1198.03 605.16C1197.35 602.653 1196.31 590.173 1195.44 580.747C1196.42 587.973 1197.55 579.693 1198.03 605.16ZM1196.86 546.907C1197.64 550.173 1198.32 555.28 1198.47 570.813C1198.52 573.52 1198.56 576.027 1198.6 578.36C1198.46 575.64 1198.33 572.947 1198.25 569.773L1198.16 592.773C1197.76 578.24 1197.12 580.813 1196.06 576.533C1196.13 563.893 1196.45 554.547 1196.86 546.907ZM1198.03 605.16L1198.7 586.187C1198.87 602.893 1198.56 607.12 1198.03 605.16ZM1199.74 137.067L1198.69 145.04L1200.24 157.787C1200.62 143.387 1201.31 113.067 1202.5 106.493C1202.63 128.08 1203.24 156.947 1204.65 191.307L1204.02 191.547C1204.45 198.467 1204.15 205.013 1204.13 212.707L1201.73 177.12C1201.44 178.6 1201.2 180.453 1201 182.6C1200.97 178.587 1200.97 175.187 1201.01 172.773L1200.69 186.787C1200.46 190.493 1200.31 194.72 1200.21 199.16C1199.19 186.56 1197.34 151.96 1197.07 150.974C1197.7 139.013 1197.33 121.133 1198.23 114.933L1199.74 137.067ZM1202.13 217.547L1202.78 223.693C1202.63 230.04 1202.29 235.427 1201.97 235.293C1201.88 232.507 1201.78 228.973 1201.69 225.013C1201.81 222.973 1201.96 220.52 1202.13 217.547ZM1202.89 295.587L1203.65 294.28C1203.52 296.427 1203.39 300.933 1203.26 308.773C1202.93 305.933 1202.71 302.307 1202.89 295.587ZM1205.33 361.347C1205.47 369.933 1205.34 377.2 1205.09 383.267C1205 376.72 1205.07 369.44 1205.33 361.347ZM1208.35 310.907L1207.51 303.053C1206.47 307.587 1207.83 328.24 1208.12 348.92C1208.59 353.36 1209.11 361.52 1209.1 368.813C1209.02 368.827 1208.95 368.947 1208.87 369.187C1208.89 371.387 1208.9 373.4 1208.91 375.28C1208.89 375.72 1208.86 376.16 1208.82 376.587L1207.96 373.4C1207.85 373.933 1207.77 374.853 1207.7 376.08L1206.42 374.853C1205.04 358.893 1207.44 342.68 1206.06 326.787L1204.91 345.413C1204.85 344.88 1204.83 343.413 1204.79 342.24C1204.86 350.667 1204.98 357.947 1205.31 359.933C1205.31 360.04 1205.31 360.147 1205.31 360.267C1205.02 363.853 1204.6 368.4 1204.2 369.107C1204.25 375.107 1204.68 379.693 1205 385.187C1204.77 389.773 1204.47 393.627 1204.16 396.787L1201.79 367.827L1202.98 321.333C1203.46 319.214 1204.01 316.013 1204.35 331.733C1204.79 319.347 1204.19 315.44 1203.62 311.467C1204.52 301.56 1204.63 314.933 1204.71 330.267C1204.77 325.787 1204.9 321.733 1205.18 320.6C1204.84 319.253 1204.44 298.4 1204.02 293.653L1204.65 292.573C1204.74 288.173 1204.84 282.507 1204.92 276.107C1204.97 275.4 1205.03 274.56 1205.08 273.533C1205.05 272.667 1205.02 271.533 1204.99 270.267C1205.03 267.12 1205.05 263.867 1205.07 260.52C1206.4 265.627 1205.39 300.293 1207 291.627C1206.81 267.613 1207.19 263.92 1206.06 249.133C1206.18 242.027 1206.31 235.573 1206.45 229.707C1206.88 237.773 1207.34 246.053 1207.85 254.547C1207.85 254.547 1207.56 253.52 1207.43 250.627C1207.74 282.627 1207.87 285.453 1208.35 310.907ZM1177.82 60.1868C1175.02 60.1868 1172.1 60.1868 1169.29 60.1868C1163.19 60.1467 1157.59 60.0134 1154.75 59.6667C1157.74 59.4534 1163.84 59.6001 1166.81 59.3867C1166.67 59.2935 1166.46 59.2267 1166.21 59.16C1170.48 59.04 1167.65 58.7734 1161.76 58.2267C1155.57 58.6001 1147.63 58.7867 1139.77 58.92C1136.51 58.8401 1133.1 58.6802 1129.6 58.4135L1160.95 57.5601L1145.87 56.1201C1151.53 55.9868 1158.21 55.9735 1165.45 56.0134C1171.56 56.0935 1178.06 56.1868 1184.63 56.2667C1191.71 56.3867 1198.87 56.5201 1205.79 56.6401C1205.77 59.2668 1205.76 61.8534 1205.74 64.3867C1205.63 62.0001 1205.44 60.0535 1205.13 58.7867L1205.05 73.0535C1204.38 60.7601 1203.67 60.1866 1203.15 67.2667C1203.02 65.12 1202.9 62.5067 1202.77 59.6934C1198.37 59.8401 1193.69 60 1190.45 60.2001C1188.76 60.2001 1186.51 60.2001 1183.94 60.2001C1184.59 60.1733 1185.26 60.1334 1185.89 60.1068C1182.63 60.0935 1180.08 60.1334 1177.82 60.1868ZM1104.43 60.6934C1096.69 60.7068 1093.73 60.6534 1092.33 60.5468C1096.32 60.6001 1100.36 60.6534 1104.43 60.6934ZM1012.18 58.8268C1012.15 58.8401 1012.13 58.8534 1012.11 58.8667C1004.01 58.64 997.448 58.3468 1005.39 57.7867C1017.57 57.7867 1025.72 58.2134 1033.92 58.6001L1012.18 58.8268ZM1216.98 54.76V183.307C1216.07 166.413 1214.93 151.88 1215.74 129.547L1214.09 144.733C1214.97 171.28 1216.14 186.68 1216.98 208.04V260.04C1216.33 247.293 1215.7 235.44 1216.54 222.52C1214.41 247.907 1214.5 188.947 1213.54 173.573C1214.19 152.293 1212.26 130.947 1213.61 119.307L1213.74 122.2L1213.71 91.2802L1216.02 95C1216.13 91.6667 1216.17 88.2267 1216.17 84.8C1216.14 82.8534 1216.13 80.9067 1216.11 79C1216.06 76.4 1216.02 73.8534 1215.98 71.3601C1215.85 65.1868 1215.66 59.5067 1215.46 54.76H1216.98ZM772.497 54.76C772.588 54.9067 772.149 55.0267 770.913 55.16L763.273 55.0267C799.508 56.2401 840.956 56.2134 873.014 55.8268L889.458 57.76C891.974 57.8534 894.233 57.92 896.271 57.9868H895.07C907.331 58.3601 913.963 59.2667 923.919 59.4534C923.919 59.4534 923.918 59.4534 923.95 59.4534C928.314 59.5334 933.206 59.4801 939.658 59.1735C946.088 58.7068 944.833 58.5068 944.88 57.8801C947.5 57.6935 950.272 57.5068 953.19 57.3068C974.695 58.3202 1005.63 58.8667 1007.3 59.8934C1013.99 59.9601 1018.36 60.0535 1021 59.8801C1034.13 60.4934 1055.03 60.8267 1036.06 62.2001C1029.3 62.6934 1030.22 65.0269 1003.23 64.3735C1002.89 64.1602 1005.19 64.0134 1007.87 63.9069C995.6 64.2002 993.568 63.6401 980.234 63.3468C976.165 61.8401 996.641 62.2534 1005.49 61.2135C996.9 61.5334 987.273 62.1334 977.86 62L980.053 61.4534L951.645 61.8C939.95 62.9467 973.204 61.9468 974.754 62.8268L956.537 63.7468C935.725 64.0535 880.155 64.48 861.299 62.3334C837.163 61.5734 847.739 63.3201 841.68 64.2534C827.097 65.5067 813.615 63.8801 799.332 64.4135C799.809 65.5735 782.893 65.4934 782.292 66.9468L758.937 66.6267C745.831 68.7867 786.961 67.0134 793.14 67.9601C805.581 69.8667 775.932 68.6001 783.966 69.7334C801.886 69.5333 803.22 68.5334 811.921 68.2135C822.214 68.0668 827.694 68.5601 827.356 69.2935C798.62 68.4667 811.727 70.8268 788.327 70.5068L787.558 70.0667C786.961 71.5067 753.56 70.6267 741.05 71.3334C715.47 69.6801 761.752 69.1334 760.937 68.6934L729.72 69.1467C743.313 68.1735 729.572 67.2534 747.831 66.3334C728.789 66.8134 726.532 65.4668 708.32 66.3867C728.984 64.2001 682.703 64.7467 680.444 63.4C700.341 62.88 735.42 64.7068 737.429 65.2135C740.963 64.9202 763.362 65.1334 772.531 65.6534L787.401 63.6667C772.265 63.6001 752.252 64.2802 752.957 63.2135C754.232 63.2401 755.505 63.2667 756.776 63.2935L752.957 63.2135C753.037 63.0935 753.368 62.9601 754.013 62.7867L745.942 63.0934L737.464 62.9333C754.667 61.0267 755.678 61.0001 774.928 59.9601C730.826 57.8401 696.397 62.2935 660.149 60.3735L665.809 60.16C652.881 60.2534 641.736 60.2534 632.048 60.1467L633.405 59.6001C629.596 59.8534 614.499 60.1733 608.665 59.4934L614.869 58.7068L600.814 59.3601C595.51 59.1067 590.933 58.8134 586.914 58.4934C587.534 58.4401 588.2 58.3735 588.945 58.3068C588.733 57.7335 582.604 57.4534 575.722 57.3201C570.105 56.6001 565.727 55.7733 561.472 54.9333C564.645 54.88 567.777 54.8268 570.864 54.76H592.783L594.294 55.7201C616.389 55.9468 635.637 55.3867 654.719 54.76H759.328C758.49 54.8 757.534 54.8534 756.422 54.8934C757.831 54.8401 759.241 54.8 760.653 54.76H772.497ZM70.5519 1216.97C70.6132 1215.72 70.6772 1214.43 70.7412 1213.11L72.1159 1213.13C72.1252 1214.41 72.1332 1215.68 72.1425 1216.97H70.5519ZM1194.52 1179.12L1194.44 1176.19L1194.16 1191.89L1193.91 1203.85C1193.16 1202.84 1192.41 1201.96 1191.67 1201.21C1191.41 1203.8 1191.33 1206.43 1191.37 1209.05C1187.91 1209.13 1184.78 1209.44 1182.62 1209.79C1182.03 1209.89 1181.53 1209.99 1181.13 1210.05C1180.37 1210.13 1179.8 1210.23 1179.46 1210.31C1178.77 1210.48 1178.99 1210.64 1180.36 1210.76C1157.67 1210.19 1171.05 1209.92 1167.76 1208.85C1169.94 1208.73 1172.55 1208.57 1175.42 1208.41C1176.85 1208.33 1178.35 1208.24 1179.89 1208.16C1180.28 1208.13 1180.67 1208.11 1181.06 1208.09L1181.34 1208.07L1181.46 1208.05L1181.7 1208.03C1182.01 1207.99 1182.33 1207.95 1182.65 1207.89C1185.19 1207.56 1187.5 1207.29 1189.61 1207.27C1189.61 1205.25 1189.82 1203.79 1190.41 1203.03C1190.24 1203.71 1190.16 1205.52 1190.43 1206.19C1190.49 1204.71 1190.55 1203.37 1190.61 1202.19C1190.62 1201.57 1190.64 1201 1190.65 1200.45C1190.66 1199.87 1190.67 1199.31 1190.68 1198.79C1190.71 1194.17 1190.68 1190.76 1190.59 1188.25C1190.42 1183.21 1190.04 1181.73 1189.6 1181.16C1188.72 1180.04 1187.6 1182.61 1187.45 1167.88C1187.3 1175.55 1186.92 1182.25 1186.64 1189.08C1186.57 1190.79 1186.51 1192.51 1186.45 1194.24C1186.41 1195.83 1186.37 1197.44 1186.33 1199.09C1186.3 1199.91 1186.33 1200.73 1186.47 1201.76C1186.49 1202.15 1186.52 1202.79 1186.59 1204.23C1185.43 1204.37 1183.57 1204.64 1181.64 1204.91L1181.44 1204.93L1181.33 1204.95L1180.94 1204.96L1179.38 1205.01C1178.35 1205.05 1177.31 1205.09 1176.28 1205.12C1174.23 1205.2 1172.19 1205.28 1170.22 1205.36C1166.28 1205.53 1162.59 1205.71 1159.51 1205.84C1164.29 1205.61 1168.56 1205.49 1172.49 1205.44C1174.45 1205.43 1176.33 1205.43 1178.15 1205.41C1179.06 1205.43 1179.95 1205.43 1180.83 1205.44L1181.38 1205.45L1181.57 1205.47L1181.95 1205.49C1183.96 1205.64 1186.01 1206 1188.72 1206.37C1188.81 1205.88 1188.9 1205.36 1189 1204.83C1188.96 1205.49 1188.96 1206.08 1188.98 1206.64C1187.36 1206.69 1186.39 1206.95 1185.23 1207.09C1184.66 1207.17 1184.05 1207.23 1183.33 1207.21C1182.97 1207.21 1182.59 1207.2 1182.18 1207.16C1181.97 1207.13 1181.76 1207.11 1181.53 1207.09L1181.37 1207.07L1180.96 1207.04C1180.64 1207.03 1180.32 1207 1179.99 1206.99C1181.51 1206.87 1181.69 1206.76 1182.08 1206.64C1181.36 1206.76 1178.35 1206.88 1176.18 1207L1168.39 1207.41C1166.05 1206.08 1125.63 1206.85 1149.31 1205.28C1128.11 1205.57 1142.02 1206.48 1122.74 1206.96L1160.79 1207.45L1160.15 1208.89C1146.26 1209.88 1142.91 1208.81 1127.58 1208.91L1128.89 1210.52L1101.72 1209.15C1105.08 1210.21 1084.22 1209.8 1078.4 1210.01C1063.4 1209.37 1073.12 1206.89 1047.63 1208.29L1049.47 1208.47C1034.88 1209 1026.25 1209.32 1005.37 1208.89C1006.49 1208.63 1012.25 1208.41 1015.11 1208.31C985.897 1207.48 939.039 1209.92 925.713 1207.56C928.08 1206.29 940.257 1207.03 940.877 1205.59C985.897 1207.48 972.422 1203.24 1025.46 1204.37C1027.91 1207.6 1070.18 1202.49 1080.27 1205.68C1059.45 1205.25 1031.83 1207.21 1035.51 1207.56C1054.67 1207.37 1081.52 1207.31 1094.88 1207.64C1083.13 1206.59 1086.9 1204.8 1095.44 1203.69C1064.46 1204.6 1008.15 1202.4 964.301 1202.12L969.226 1204.07C931.354 1205.47 973.824 1202.24 944.265 1202.15L931.204 1203.57L929.345 1203.4L907.644 1205.15C922.969 1205.05 915.925 1203.65 932.78 1204.47C947.771 1205.09 932.145 1205.91 927.862 1207.01C917.615 1206.44 881.144 1206.84 903.658 1205.53L863.66 1207.47C863.947 1206.75 872.674 1206.43 876.745 1206.05L847.864 1206.39L848.917 1206.12C826.868 1206.93 796.529 1206.97 778.284 1208.15C770.066 1207.93 762.614 1207.64 755.678 1207.33C759.28 1206.87 764.444 1206.44 771.529 1206.12C779.66 1207.24 800.397 1205.77 815.665 1205.68C795.964 1204.99 789.829 1205.92 774.424 1206.01C785.312 1205.15 753.928 1204.87 754.252 1204.15C756.317 1203.6 762.764 1201.93 782.555 1202.63C812.113 1202.73 785.645 1204.41 794.378 1204.09C802.213 1205.95 835.592 1203.76 853.514 1204.29C855.397 1204.47 849.529 1204.68 846.621 1204.79C862.026 1204.69 894.469 1204.68 896.845 1203.41L858.294 1204.36C849.896 1203.95 870.194 1203.2 858.145 1202.47C849.378 1202.79 838.866 1202.93 827.461 1202.64L829.607 1202.09C806.232 1201.05 769.69 1201.44 742.776 1201.96C739.413 1203.53 733.562 1204.76 726.995 1206.07C721.97 1205.88 717.029 1205.75 712.022 1205.69C712.453 1205.55 712.653 1205.41 712.608 1205.28C717.526 1205.33 721.923 1205.43 720.201 1205.23C717.351 1205.11 714.593 1205.01 711.909 1204.92C711.233 1204.75 710.071 1204.57 708.371 1204.41L704.144 1204.71C702.039 1204.67 699.977 1204.61 697.956 1204.59L686.717 1203.55C685.881 1203.95 684.181 1204.24 681.839 1204.47C663.648 1204.49 647.351 1204.95 626.797 1204.76C638.386 1203.69 650.06 1202.68 665.533 1203.85L663.271 1202.51C681.467 1202.32 696.203 1203.68 706.291 1202.36L685.108 1202.65L685.474 1201.93C670.46 1202.03 651.333 1203.16 637.481 1202.36C630.664 1202.85 624.077 1203.52 613.9 1203.95C614.245 1203.56 608.097 1203.2 601.075 1202.79C607.656 1202.33 609.454 1201.52 618.894 1201.27C591.416 1201.45 585.798 1201 552.922 1201.36C563.92 1201.56 571.405 1201.72 576.264 1201.92C549.8 1201.85 510.46 1201.2 472.431 1200.64L471.073 1200.57C470.405 1200.59 469.752 1200.59 469.089 1200.6C451.779 1200.35 434.827 1200.12 419.588 1199.99C434.101 1197.2 358.549 1198.37 354.141 1195.59C341.932 1195.27 322.932 1195.27 321.575 1196.24C328.352 1195.91 344.881 1197.13 342.688 1197.63C324.833 1197.37 297.599 1196.77 295.115 1197.99L273.088 1196.12C271.729 1197.09 264.631 1198.12 252.453 1197.81C225.395 1194.59 255.379 1199.67 216.66 1197.31C225.495 1196.49 233.375 1195.92 236.593 1195.16C217.861 1194.45 220.409 1195.13 207.151 1195.05C202.812 1194.16 220.308 1193.24 234.613 1193.05L210.536 1191.69C187.284 1192.69 146.893 1193.92 109.525 1192.49C115.615 1191.71 127.745 1192.03 117.973 1190.48C111.076 1190.47 103.185 1190.69 94.7465 1190.83C92.7012 1190.85 90.6239 1190.89 88.5185 1190.92C88.2385 1190.92 87.9479 1190.92 87.6652 1190.92C88.2105 1187.07 88.7185 1181.73 87.8492 1156.92L88.7465 1164.81L88.0945 1138.11C88.3092 1137.99 88.5252 1137.92 88.7425 1137.92C89.3572 1135.41 89.6479 1092.24 87.9185 1090.61C86.7799 1110.83 86.4119 1062.72 85.9092 1100.16C85.5812 1101.19 85.2225 1100.2 84.9012 1097.84C84.7599 1096.07 84.6399 1094.96 84.5372 1094.39C84.0199 1088.23 83.7119 1078.27 84.0092 1068.29C85.0079 1069.69 84.6492 1085.47 85.6665 1074.63C84.5119 1062.92 85.2985 1058.47 83.7959 1062.55C83.0812 1047.53 82.2892 1042.68 81.5199 1035.31C81.9345 1023.44 82.2705 1012.41 81.5599 994.16L79.8999 977.733C79.8652 974.573 79.8172 971.267 79.7465 967.92C80.0719 973.987 80.6212 978.893 81.1372 984.267C81.2945 987.947 81.4265 991.04 81.5599 994.16L84.7359 1025.57L85.6772 1030.69C86.0919 1054.12 86.9799 1052.63 87.9599 1066.21C89.7479 1068.64 89.1759 1038.48 90.1639 1025.84C90.0425 1026.57 89.9132 1026.96 89.7945 1026.52L90.2145 1006.04C89.5185 1025.48 88.2185 1003.33 88.0625 992.947C88.0199 985.387 87.9319 970.36 88.4839 972.427L88.9132 983.867C89.5439 969.133 87.4572 951.36 88.5385 935.8C88.9879 934.987 89.1985 940.88 89.4759 941.773C88.1119 924.333 88.1932 907.52 87.2279 881.72L89.2079 896.667C87.0159 876.027 87.6385 829.28 88.7959 796.893C88.4599 800.48 88.2239 806.96 87.8425 803.067C87.3692 784.04 88.7279 769.667 89.7705 778.48C88.1265 759.893 91.1532 707.667 89.0185 682.333L78.9532 565.853C79.2065 570.213 79.4105 574.88 79.4972 579.693C79.1172 582.013 78.8319 584.093 78.5985 585.733L78.1105 556.08L78.9532 565.853C78.7052 561.587 78.4052 557.653 78.0812 554.293L78.0719 553.747C78.0572 553.747 78.0412 553.733 78.0265 553.733C77.8585 552.04 77.6852 550.48 77.5105 549.12L77.9025 553.667C77.3825 553.133 76.7785 549.747 76.3319 550.547L76.9799 584.44C76.7985 582.653 76.5879 580.333 76.3319 577.44C77.2505 595.653 78.6479 588.693 78.7199 616.053C78.3665 611.72 77.8305 608.707 77.3039 608.36C77.2479 605.253 77.2092 601.92 77.1892 598.32C77.1785 602.12 77.1719 605.4 77.1705 608.32C76.9719 608.373 76.7759 608.827 76.5932 609.76C76.3839 591.653 75.9932 562.96 75.1892 555.787L74.7905 570.813C74.4345 546.013 72.9159 521.64 71.4359 511.533C72.0959 542.28 74.4199 541.227 74.8159 580.347C74.4639 604.76 74.0265 597.707 73.4572 592.653C73.4665 582.347 73.1839 567.96 72.7199 555.973C72.0079 545.787 71.1212 510.493 69.9079 496.32C69.9532 494.427 69.9985 492.547 70.0452 490.613C70.1732 491.16 70.2972 492.053 70.3385 493.213C70.2972 490.347 70.2265 488.027 70.1519 485.88C70.2705 479.947 70.3892 474.027 70.5079 468.067L70.8199 471.653C70.7359 469.293 70.6545 467 70.5745 464.773C70.6839 458.653 70.7945 452.507 70.9052 446.36L70.3692 436.893L70.3052 441.547C68.5825 439.813 67.2785 417.707 67.4852 391.507C67.4145 392.973 67.2625 402.653 67.0625 417.213C66.9425 415.213 66.8092 413.4 66.6625 411.88C66.6159 419.133 66.5545 420.573 66.5052 421.747L66.3639 420.12C66.5172 407.333 66.6665 394.92 66.8105 382.8C66.9372 379.36 67.1105 377.88 67.4519 381.813C67.3679 374.853 67.2332 368.333 67.0585 362.147C67.1585 353.747 67.2572 345.493 67.3545 337.44C67.6905 346.88 67.9505 356.613 67.7972 368.133C68.2292 361.613 68.4012 354.227 68.4452 346.6L70.8199 391.733C70.8212 391.813 70.8225 391.893 70.8239 391.973C69.0625 414.72 69.7519 363.36 68.7545 361.947L68.2745 387.133C69.0945 384.52 69.0319 415.427 70.0572 423.4C70.2599 432.053 70.5732 439.067 70.9079 446.147C70.9065 446.227 70.9065 446.293 70.9052 446.36L70.9972 448.027C71.4905 458.4 72.0092 469.227 72.2692 485.8C72.0839 485.04 71.9199 483.68 71.8012 481.587L71.8145 483.213L72.2665 488.453C72.2732 491.507 72.3159 494.88 72.4185 498.72C72.3772 495.133 72.3399 491.933 72.3052 488.893L76.4279 536.627C76.6119 523.24 75.8039 521.093 75.2559 513.56C75.7212 505.187 76.3705 512.853 77.0812 522.253C77.1612 524.173 77.2745 525.44 77.3959 526.347C77.4945 527.587 77.5865 528.76 77.6812 529.96L77.6359 527.213C77.8212 527.4 78.0292 526.787 78.2985 524.8C77.5212 505.52 78.6399 490.747 78.4639 478.333C76.0265 490.64 77.1852 436.067 76.1279 420.467L75.5825 402.453L75.4705 395.707C75.7292 394.4 76.1025 396.147 76.7412 405.467C76.1372 395.827 75.8572 369.44 75.0852 372L74.0105 306.707C74.0865 304.667 74.1879 302.627 74.3532 301.12C74.1519 298.867 74.0105 298.493 73.8812 298.787L73.3932 269.173L84.4052 311.227C84.5692 311.227 84.8199 312.053 85.2119 314.307L84.4052 311.227C83.8919 311.253 84.3465 320.973 84.6945 331.84C84.1519 329.587 83.4959 327.173 83.5705 340.027C82.6439 365.88 85.0705 380.067 84.8252 398.8L84.6105 393.027C84.0799 410.64 84.2119 433.227 85.1972 446.773C83.1159 461 84.7159 395.853 82.8972 423.267C83.5865 403.827 82.0745 375.987 81.9892 360.92C81.5039 386.093 79.4692 407.787 78.2572 400.68C79.5692 454.773 82.7652 400.68 83.5812 448L83.1439 480.693L85.4652 492.027C85.4919 511.68 83.5919 479.947 83.7692 510.053C84.8492 518.24 83.8599 537.707 84.5719 543.64C84.0479 542.813 83.4719 542.413 83.4199 557.893C83.6999 558.92 84.5865 557.52 84.5719 569.667C82.2799 578.04 84.1159 538.453 82.0385 552.627C81.9852 587.28 83.9972 574.84 84.8625 580.053C84.8039 578.867 84.9065 576.973 84.9505 573.547C85.6785 573.893 85.0425 588.627 85.9332 587.067C86.0132 581.173 85.7999 575.32 85.5812 570.2C86.3092 580.653 87.0945 553.04 87.1145 542.52C85.9785 518.453 86.4972 468.987 86.2105 435.92C86.3199 438.813 86.5345 444.52 86.8719 440.933C86.7759 393.907 87.4692 374.453 86.8799 320.667L85.2239 314.36C85.1265 267.333 80.5865 291.72 80.1532 280.28C80.0079 269.867 78.9612 260.973 79.8105 251.987L80.4679 256.907C79.8465 227.493 78.7039 247.72 78.9119 221.507C77.8852 200.373 78.6599 240.147 77.6785 226.627C78.0545 198.6 74.4239 209.333 75.8799 165.76C76.4279 167.853 77.8332 160.893 78.0665 186.413L79.2759 161.507C79.8999 190.933 79.7012 172.973 79.8825 203.08C81.5799 216.96 82.6439 213.667 84.0732 226.467C83.6465 215.107 82.3079 217.36 82.3825 200.413C82.8052 179.933 83.2172 203.64 83.7692 205.667C81.8065 178.533 85.4825 175.427 83.6279 151.214C81.6705 155.947 81.7345 151.24 80.4892 168.64C79.8465 151.413 81.1572 129.507 82.8745 131.133L81.3225 127.613C81.7039 123.573 81.7265 109.88 82.1225 109L81.3585 103.187C80.1745 115.84 79.6025 125.987 80.1852 147.787C79.1425 138.947 77.5532 159.867 77.2079 131.547C77.2212 119.32 78.0932 130.067 78.5425 129.28C78.1852 110.253 78.2759 96.9067 78.5532 86.1868C78.5919 84.8401 78.6292 83.5468 78.6652 82.2802L78.6959 81.3334L78.7265 80.8401C78.7479 80.5201 78.7705 80.2001 78.7919 79.8801C78.8892 78.6667 78.9839 77.4935 79.0745 76.3735C79.2839 74.3068 79.4799 72.3601 79.6799 70.3735C82.7039 70.6401 85.5692 70.8668 88.7839 70.9735C89.1839 70.9868 89.5932 71.0001 90.0092 71.0134C90.6745 71.0267 91.3532 71.0269 92.0479 71.0402C93.9319 71.0535 95.8999 71.0535 97.9625 71.0535C102.091 71.0535 106.603 71.0001 111.613 70.9069C107.315 71.1602 100.877 71.2001 93.3025 71.1868C91.1305 71.1868 88.7972 71.1868 86.3719 71.1735C84.4679 71.1868 82.4932 71.2001 80.5039 71.2001C80.5319 73.0267 80.5839 74.8801 80.6705 76.6802C80.7252 77.5601 80.7785 78.4402 80.8319 79.3068C80.8665 79.7335 80.9025 80.1602 80.9372 80.5735L80.9959 81.1868L81.0105 81.3468L81.0265 81.7068L81.0599 82.4L81.1225 81.7068L81.1519 81.3468L81.1812 81.1868L81.2839 80.6001C81.3452 80.2134 81.3972 79.8268 81.4372 79.4402C81.5172 78.6669 81.5559 77.8934 81.5652 77.0934C81.5812 75.5067 81.4759 73.8401 81.3372 72.0402C84.1332 71.7734 87.2745 71.4 90.2892 71.4934C84.8292 72.2001 85.1505 72.7467 90.3985 73.3867C90.5159 73.3468 90.5105 73.3068 90.7332 73.2667L91.4905 73.1467L93.0052 72.92L96.0345 72.4402C104.847 72.4668 120.652 72.3467 121.841 72.8C122.249 72.4401 118.361 72.2002 110.359 71.9069C132.496 70.6135 174.075 70 213.308 70.6667C210.517 72.6667 157.377 71.8135 185.849 73.3468C201.919 72.9868 215.025 70.8401 242.831 71.9333C231.025 73.0801 255.499 73.1334 255.161 73.8401L293.783 71.4534C312.448 71.7068 333.997 71.8534 351.172 71.2001C345.429 71.4268 337.88 71.4667 328.583 71.3334C354.912 68.9333 377.012 72.1334 410.38 71.1201L395.011 71.9333C420.188 72.4133 440.219 71.6667 460.263 70.92L459.689 72.3601C462.354 70.3734 505.753 69.9333 515.417 69.3334C453.769 70.6934 462.433 67.7601 402.707 69.2802C425.144 67.2534 441.292 66.8934 465.622 65.0402C474.875 65.1602 478.534 65.4934 479.248 65.9468C487.134 65.1735 489.463 63.9069 503.869 63.3735L508.229 64.16C549.189 64.9867 545.26 60.8801 584.432 61.5468C592.171 63.3868 550.624 63.9868 526.636 65.1201C545.144 66.8135 487.541 65.9734 509.233 68.3867L520.985 67.2267C531.815 67.2534 531.987 68.0269 526.619 68.2401C540.018 67.9601 536.835 68.2534 542.524 67.3735C604.648 67.1868 535.924 69.7467 596.692 70.5601C589.801 71.0533 572.987 70.9735 576.286 72.0402L543.621 71.6001L542.996 73.0402C584.284 73.1602 608.568 71.3068 627.414 68.9333C590.172 70.3334 623.346 67.4401 603.867 66.7334C611.132 66.0267 617.977 66.4135 622.092 66.8268C624.826 66.4 643.595 66.1334 641.119 65.3468C650 68.8135 730.826 68.8667 712.397 72.4C735.413 73.4401 806.654 71.4801 856.61 71.2802L843.05 72.2534C895.297 75.2802 889.152 69.8267 919.614 68.9333C892.812 70.16 943.398 70.4 954.247 71.4268C978.234 70.28 997.737 68.3734 1031.51 68.5333C1038.52 69.9333 1039.44 72.2667 1060.99 72.4135L1075.58 71.16C1097.09 71.2935 1125.74 70.2267 1139.52 71.1334L1136.58 71.2401C1160.73 72.0001 1161.65 69.8401 1142.92 69.5735L1165.85 68.7201L1166.62 69.1735C1169.66 69.0802 1172.68 68.9734 1175.7 68.8667C1177.22 68.8134 1178.73 68.7467 1180.24 68.6934L1181.36 68.6401L1182.01 68.6001L1183.32 68.4934C1187.07 68.2267 1190.89 67.9468 1194.88 67.6534C1195.13 70.3601 1195.37 73.3068 1195.61 76.5468C1195.67 77.3601 1195.73 78.1868 1195.79 79.0267C1195.82 79.4534 1195.85 79.8801 1195.88 80.3068C1195.91 80.8268 1195.94 81.3334 1195.97 81.8534C1196.09 84.5734 1196.21 87.3467 1196.33 90.2001C1196.8 101.627 1197.2 114.24 1197.45 128.64C1195.9 115.854 1195.13 165.147 1194.28 121.733C1195.1 134.213 1195.61 114.813 1196.21 112.293C1196.29 104.44 1195.92 96.9734 1195.49 90.6001C1195.26 87.4268 1195.05 84.5067 1194.86 81.9601C1194.84 81.6667 1194.82 81.3734 1194.8 81.0934C1194.78 80.9067 1194.76 80.7334 1194.74 80.5601C1194.7 80.2134 1194.66 79.88 1194.63 79.5601C1194.57 78.92 1194.52 78.3601 1194.49 77.8534C1194.11 79.4801 1193.43 79.5601 1192.7 78.9333C1191.98 78.2933 1191.21 77.0269 1190.64 75.6401C1190.8 76.3601 1190.93 77.2267 1191.06 78.2001C1191.11 78.7067 1191.17 79.2268 1191.23 79.7734C1191.26 80.0402 1191.29 80.3335 1191.31 80.6134L1191.35 81.0535L1191.37 81.3201L1191.39 81.8268C1191.61 87.2001 1191.79 93.1868 1191.95 99.5201C1192.18 112.2 1192.44 126.253 1192.69 139.573C1193.16 166.214 1193.8 189.867 1195.74 193.453C1195.88 231.893 1197.28 282.053 1196.96 325.933C1197.12 324.12 1197.42 320.56 1197.7 321.587L1196.4 359.427L1195.99 350.733L1195.03 375.667C1194.43 378.267 1193.75 368.573 1193.5 358.28C1193.25 352.813 1193.62 347.827 1193.89 351.773C1192.49 327.293 1193.55 374.867 1192.05 357.68C1192.21 351.093 1191.81 342.573 1191.83 337.867C1191.13 368.467 1193.69 382.64 1191.73 401.507C1193.12 416.08 1194.75 445.76 1193.91 473.547C1192.94 462.773 1194.38 503.653 1192.54 489.773C1193.51 500.467 1192.55 525.36 1193.69 529.56C1193.27 525.653 1193.17 513.507 1193.5 505.133C1194.03 516.613 1195.05 518 1194.99 531.973C1194.83 533.773 1194.55 532.76 1194.55 532.76C1194.81 537.133 1195.16 539.76 1195.53 541.667C1195.08 556.68 1195.86 552.96 1195.16 577.733C1194.58 571.68 1194.12 567.867 1193.96 570.853C1194.43 572.56 1194.95 584.4 1195.22 597.507C1193.52 599.133 1193.12 617.587 1193.12 642.373C1193.7 632.2 1194.55 638.24 1195.47 639.68C1195.6 644.64 1195.59 649.587 1195.24 653.773C1195.3 654.013 1195.36 654.267 1195.43 654.507C1195 661.88 1194.82 676.307 1194.31 686.053C1195.56 714.427 1192.57 743.787 1194.12 765.6C1194.01 796.2 1192.76 767.88 1192.57 769.733C1191.66 797.2 1193.61 781.667 1193.85 790.413C1194.51 831.92 1191.79 836.533 1191.41 866.12C1193.04 890.747 1191.83 950.667 1191.32 992.627C1190.71 987.547 1190.15 993.107 1189.5 995.64C1191.85 1020.65 1190.89 1011.65 1192.22 1042.89L1193.39 1016.49C1193.5 1037.68 1195.15 1054.75 1193.54 1074.16C1196.16 1048.4 1194.95 1108.32 1195.62 1123.96C1194.55 1145.59 1196.09 1167.32 1194.52 1179.12ZM1194.65 767.72C1195.67 735.573 1193.64 748.133 1195.03 712.307C1195.51 729.773 1195.67 709.64 1196.47 712.92C1195.92 708.347 1195.89 680.987 1196.27 658.307C1197.33 663.6 1198.32 670.387 1199.07 674.893L1199.57 707.067C1199.53 707.84 1199.5 708.6 1199.46 709.413L1199.2 708.4L1198.81 704.773C1199.21 713.36 1199.33 720.92 1199.44 728.493C1198.41 731.773 1198.61 720.667 1198.07 709.187C1198.03 709.44 1198.01 709.707 1197.98 709.947C1197.9 708.133 1197.81 706.4 1197.67 704.8C1195.4 734.56 1199.24 744.8 1198.75 779.147C1196.22 807.707 1197.79 744.173 1195.9 744.307C1196.33 751.2 1195.18 769.933 1194.65 767.72ZM1207.71 915.227C1207.78 917.027 1207.84 918.827 1207.89 920.6C1207.76 925.213 1207.57 930.12 1207.29 935.387C1207.49 933.293 1207.76 930.653 1208.04 928.587C1208.26 947 1207.69 963.413 1208.52 975.627C1208.16 976.373 1207.84 974.68 1207.81 963.373C1207.65 966.36 1207.56 968.853 1207.52 970.987C1207.26 967.573 1206.93 965.427 1206.5 965.24C1207.47 975.96 1208.03 982.76 1208.11 999.613C1205.38 1005.83 1206.98 973.44 1204.49 964.947C1204.41 958.907 1204.34 952.36 1204.37 945.827C1203.87 940.147 1203.44 928.44 1204 920.107C1204.32 927.827 1204.72 934.587 1205.29 939.533L1205.58 932.053C1205.32 929.133 1205.14 924.787 1205.07 920.493C1205.26 919.253 1205.41 916.907 1205.54 913.733C1206.15 919.88 1206.9 897.88 1207.71 915.227ZM0 0V1271.75H1271.75V0H0Z"/>
</svg>
