<svg width="72" height="72" viewBox="0 0 1272 1272" fill="#FFC89D" xmlns="http://www.w3.org/2000/svg">
<path d="M1197.38 1214.49C1189.66 1213.85 1182.57 1213.03 1187.11 1212.35C1202.41 1210.04 1202.41 1210.04 1162.8 1208.35C1150.55 1206.89 1135.38 1205.79 1117.29 1205.01C1129.27 1201.35 1118.42 1197.59 1082.99 1192.72C1052.8 1188.56 1033.2 1188.04 1001.28 1188.8L897.224 1187.59L885.471 1187.16L873.922 1186.73C848.465 1185.01 827.677 1185.61 804.566 1185.05L781.461 1184.21C757.754 1183.13 736.789 1184.03 712.124 1182.25L654.33 1180.99L492.55 1177.68C488.636 1177.24 484.694 1177.08 480.725 1177.24C455.095 1176.64 429.147 1175.93 403.893 1175.47C334.081 1174.16 259.764 1171.11 193.376 1171.13C186.828 1170.56 184.132 1169.83 176.483 1169.31C160.665 1168.31 146.207 1168 132.817 1168.21C129.385 1167.48 121.025 1167.25 111.26 1167.17L96.3679 1166.81L96.3492 1165.51L96.0932 1164.4L95.7119 1164.09C95.4479 1164.09 95.1999 1164.44 94.9665 1165.19C94.7985 1163.45 94.5799 1161.81 94.3012 1160.27C94.0319 1158.95 93.7079 1157.93 93.3372 1157.29C93.4519 1156.47 93.5492 1155.63 93.6225 1154.68C93.6665 1151.65 93.7105 1148.59 93.7559 1145.51L93.9559 1153.96C94.2025 1154.41 94.4505 1154.8 94.6999 1154.8L94.7865 1131.48C95.0092 1127.65 95.0265 1123.68 94.8359 1119.56L94.5372 1120.77L94.5252 1109.09L94.5212 1097.56C94.2492 1097.41 93.9759 1097.39 93.7039 1097.51L93.9319 1109.11H93.9305C93.7905 1112.76 93.7945 1116.37 93.9412 1119.97L93.7999 1126.36C93.7772 1117.65 93.7065 1109.07 93.5185 1100.67C93.3692 1094.57 93.2225 1088.55 93.0719 1082.4C93.0452 1079.6 93.0159 1076.77 92.9879 1073.95L93.8172 1074.64L93.9745 1061.57L93.7225 1062.83L93.7825 1057.16C93.7825 1057.16 93.6825 1051.6 93.6825 1051.59C93.5025 1051.32 93.3225 1051 93.1425 1050.64L92.9612 1062.64C92.9612 1062.64 92.9532 1062.56 92.9399 1062.43C92.9372 1058.72 92.9332 1055.01 92.9305 1051.31C92.9239 1047.12 92.9172 1042.93 92.9105 1038.73C92.8785 1032.48 92.8452 1026.25 92.8132 1020.04C92.7639 1015.95 92.6905 1011.96 92.5799 1008.04C92.4452 1004.35 92.3932 1000.51 92.4119 996.373C92.5319 992.72 92.6492 989.133 92.7719 985.413C92.9412 980.213 93.1079 975.093 93.2799 969.813C93.3759 966.107 93.4319 962.28 93.4439 958.36C93.4239 954.413 93.3572 950.613 93.2399 946.947C93.1892 945.76 93.1412 944.653 93.0919 943.507L93.1612 942.907C93.1945 939.493 93.1425 936.44 93.0105 933.76C93.2385 930.907 93.2412 927.373 93.0092 923.16L92.9025 924.08L92.2679 924.307C92.2519 923.76 92.2345 923.24 92.2185 922.68C92.2172 922.613 92.1812 917.36 92.1812 917.36C92.1812 917.36 92.2025 912.093 92.2025 912.027C92.3652 906.467 92.5185 901.173 92.6785 895.707C92.7772 891.693 92.8572 887.52 92.8972 883.333C92.9199 878.907 92.9425 874.4 92.9652 869.907C92.9759 860.427 92.9519 850.947 92.7785 841.653C92.6652 837.013 92.4972 832.747 92.2652 828.96C91.8625 824.2 91.2852 825.693 90.8559 821.973C91.1985 821.667 91.4679 819.88 91.6025 815.413C91.6692 810.32 91.6465 805.68 91.4665 801.84C92.0692 788.867 92.1519 774.667 91.9879 759.907C91.8239 751.373 91.6625 743.013 91.5039 734.733C91.3919 729.147 91.2799 723.587 91.1705 718.16C91.0745 713.987 90.9465 710 90.7812 706.28C90.9879 706.867 91.1999 706.747 91.4172 705.64C91.8919 702.307 92.2185 697.213 92.4172 690.6C92.4532 686.04 92.4119 681.64 92.2785 677.4C92.0505 669.12 92.0559 660.173 91.8425 651.84C91.7305 647.867 91.5919 644.16 91.4092 640.627C91.2225 637.413 91.0425 634.307 90.8639 631.24C90.6239 626.24 90.6092 621.147 90.7972 615.987C91.0625 611.133 91.3359 606.16 91.4945 600.347C91.5092 598.173 91.5239 595.947 91.5385 593.8C91.5332 591.587 91.5292 589.28 91.5239 587.067C91.5119 586.187 91.4999 585.347 91.4865 584.48C91.4999 582.72 91.4732 580.973 91.4079 579.253C91.2785 572.733 91.1519 566.293 91.0239 559.747C90.7492 548.613 90.4745 537.547 90.2012 526.507C90.0225 520.213 89.8479 514.013 89.6692 507.733C89.5665 503.627 89.5012 499.427 89.4559 495.147C89.4399 490.893 89.4239 486.64 89.4092 482.4C89.3985 481 89.3879 479.627 89.3772 478.24C89.4825 482.76 89.5879 487.307 89.6905 491.693C89.8145 496.227 89.9599 500.68 90.1439 504.84C90.7719 517.893 91.0599 532.48 91.1945 547.867C91.2719 552.653 91.3479 557.307 91.4225 561.973C91.4799 565.48 91.5372 568.987 91.5932 572.493C91.5865 572.72 91.5799 572.907 91.5719 573.147C91.5519 576.4 91.5812 579.52 91.6625 582.507C91.6612 584.307 91.6612 586.12 91.6612 587.933C91.6412 592.293 91.6492 596.667 91.6972 601.027C91.7959 607.4 91.8919 613.747 91.9905 620.12C92.0185 624.413 92.0479 628.72 92.0772 633.013C92.0852 637.373 92.0945 641.747 92.1039 646.093C92.1185 650.533 92.1319 654.987 92.1465 659.413C92.1759 663.907 92.2279 668.387 92.3199 672.747C92.4359 677.08 92.6052 681 92.8452 684.36C92.9225 684.973 93.0012 685.48 93.0825 685.893L93.0772 692.133C93.2292 692.12 93.3799 692.04 93.5332 691.867C93.5999 690.387 93.6705 688.853 93.7439 687.24C93.7705 687.227 93.7959 687.253 93.8225 687.227C94.1545 686.16 94.4705 684.56 94.7679 682.293C96.8732 682.933 96.5839 661.667 96.3665 646.413C95.3612 576.32 95.6345 503.627 94.4505 435.147C93.7972 397.4 94.8305 356.387 93.0385 322.187C92.7785 285.733 92.9025 249.04 92.9292 212.4C92.8985 194.08 92.8665 175.787 92.8359 157.533C92.7652 148.413 92.6932 139.293 92.6225 130.2L92.4545 124.44L92.2372 118.8C92.4559 117.027 92.5639 115.267 92.5185 113.347C93.7225 113.32 94.8612 113.227 95.9705 113.04C159.188 112.467 222.055 111.893 285.027 111.32C354.207 110.707 423.515 110.187 493.511 110.253C495.461 110.253 497.412 110.267 499.36 110.28C505.279 110.307 510.987 110.413 516.588 110.547C520.836 110.613 524.099 110.507 526.365 110.227C547.705 108.6 573.482 109.707 597.261 109.573C601.433 109.707 605.773 109.76 610.253 109.747C619.172 109.68 628.046 109.6 637.014 109.52C641.65 109.52 646.348 109.52 650.978 109.52C658.393 109.547 665.871 109.547 673.272 109.467C680.077 109.427 686.868 109.373 693.509 109.267C692.458 109.32 691.401 109.413 690.337 109.56C690.145 109.76 690.123 109.96 690.271 110.16C698.052 110.307 700.945 110.027 700.756 109.48L700.361 109.573C698.945 109.36 697.517 109.253 696.078 109.227C698.97 109.16 701.834 109.093 704.65 109.013C708.482 108.947 711.863 108.813 714.777 108.64C717.272 108.893 720.688 108.92 725.181 108.693C756.112 108.573 787.389 108.133 816.847 109.293C820.339 109.133 824.119 109.027 828.183 109C832.255 108.987 836.241 108.933 840.114 108.84C845.177 108.573 846.869 108.08 852.22 107.84L886.56 107.547L967.457 107.56C979.952 107.587 994.498 108.253 1002.68 106.92L1152.46 106.973H1185.97L1189.27 269.373L1189.97 304.147C1190.43 320.147 1191.07 333.853 1192.51 337.733C1193.39 325.253 1192.77 306.373 1192.8 290.227C1192.78 288.76 1192.77 287.28 1192.76 285.8C1194.34 307.187 1193.93 328.747 1193.67 350.28L1194.66 359.627C1194.59 359.813 1194.52 359.987 1194.45 360.2C1193.88 378.653 1194.32 398.893 1195.04 419.653C1196.03 461.84 1196.37 504.933 1198.55 545.453C1199.53 559.24 1198.85 572.72 1199.33 586.44C1199.43 591.133 1199.53 595.827 1199.63 600.533C1199.74 605.213 1199.86 609.867 1199.98 614.52C1200.12 618.107 1200.25 621.627 1200.39 625.107C1200.37 625.973 1200.35 627.027 1200.33 628.48L1200 627.24C1200.15 631.2 1200.31 635.147 1200.47 639.107L1200.37 638.32C1200.63 643.093 1200.88 644.373 1201.13 642.187C1201.2 643.853 1201.27 645.507 1201.34 647.187C1201.55 653.733 1201.77 660.267 1202.06 666.587C1202.16 668.093 1202.24 669.467 1202.33 670.773C1202.21 670.72 1202.11 671.707 1202.04 673.867L1202.2 681.067C1202 683.333 1201.9 686.427 1201.91 690.547C1202.04 692.813 1202.16 695.067 1202.28 697.32C1203.85 719.227 1203.05 742.68 1203.9 765.067C1205.5 805.027 1205.61 845.947 1206.77 886.28C1207.08 892.373 1207.48 895.627 1207.98 896.093C1208.26 892.8 1208.42 889.067 1208.52 885.04C1208.62 887.76 1208.74 890.653 1208.86 893.52C1209.91 911.053 1208.89 935.547 1210.98 949.64C1211.34 947.907 1211.57 944.533 1211.65 939.52C1211.55 935.867 1211.54 932.4 1211.59 929.12C1210.21 911.787 1209.71 891.547 1209.41 870.707C1209.02 870.147 1208.77 870.4 1208.59 871.24C1208.51 857.36 1208.07 842.067 1208.27 829.307C1208.58 821.667 1208.85 814.773 1209.15 807.307C1209.19 805.133 1209.25 802.893 1209.29 800.6L1209.79 800.693C1209.97 797.44 1210.03 793.547 1209.99 789.04C1209.85 785.067 1209.65 781.72 1209.38 778.933C1209.45 777.347 1209.57 776.787 1209.74 777.013C1209.93 778.787 1210.09 781.24 1210.19 783.853C1210.34 788.92 1210.5 794.253 1210.65 799.507L1210.7 801.8C1210.66 801.947 1210.63 802.067 1210.59 802.213C1210.67 805.813 1210.77 809.427 1210.85 813.04C1210.87 814.107 1210.98 815.213 1211.17 816.347C1211.17 816.413 1211.18 816.4 1211.19 816.44C1211.29 818.573 1211.38 820.68 1211.47 822.747C1211.55 824.16 1211.63 825.533 1211.7 826.933L1211.67 827.08C1211.75 829.787 1211.83 832.48 1211.93 835.173L1212.33 838.547L1212.35 839.027C1212.54 842.6 1212.74 846.013 1212.97 849.267C1212.97 849.293 1213.35 853.12 1213.35 853.12L1213.46 858.707C1213.54 862.427 1213.66 865.987 1213.85 869.36C1214.89 896.84 1215.47 924.32 1215.5 951.787C1215.66 978.333 1216.97 1006.93 1216.3 1032C1216.69 1047.28 1216.74 1063.01 1216.98 1078.51V1216.48C1212.39 1215.87 1206.05 1215.2 1197.38 1214.49ZM1086.24 1208.87C1087.26 1208.87 1088.33 1208.87 1089.43 1208.87C1088.92 1208.92 1088.48 1208.96 1088.02 1209.01C1087.43 1208.96 1086.86 1208.92 1086.24 1208.87ZM88.6092 448.133C88.5025 446.533 88.4652 444.88 88.4959 443.173C88.5345 444.84 88.5719 446.48 88.6092 448.133ZM87.3425 305.373C86.2225 284.493 87.0799 260.413 86.9825 237.88C87.2305 241.027 87.5185 243.133 87.8679 243.6C87.8452 244.293 87.8225 244.973 87.7985 245.667C87.6079 259.213 87.6425 272.387 88.1892 284.707C88.4679 285 88.6945 285.853 88.8839 287.12C88.8385 287.36 88.8052 287.547 88.7545 287.813C87.9439 289.427 87.5625 296.413 87.3425 305.373ZM193.636 54.8133C193.505 54.8267 193.361 54.8534 193.209 54.8667C193.116 54.8534 193.016 54.8399 192.923 54.8266C193.151 54.8266 193.4 54.8267 193.636 54.8133ZM1216.98 724.853C1216.97 724.067 1216.94 723.28 1216.91 722.493C1216.89 718.067 1216.86 713.76 1216.83 709.44C1216.89 709.72 1216.93 709.933 1216.98 710.107V724.853ZM0 4.32499e-05V1271.75H1271.75V4.32499e-05H0Z"/>
</svg>
