<svg width="55" height="55" viewBox="0 0 196 190" fill="none" xmlns="http://www.w3.org/2000/svg">
<path d="M180.746 59.6697C180.619 59.2111 180.488 58.7497 180.358 58.2844C181.056 59.6604 181.744 61.1297 182.418 62.6911C182.122 62.9391 181.998 63.8871 182.519 67.3417C181.81 64.2764 181.315 61.9671 180.746 59.6697ZM181.719 66.7804C181.079 63.0684 179.956 59.1804 178.763 55.3271C179.139 55.9911 179.514 56.6791 179.89 57.3924C180.196 58.4537 180.522 59.5791 180.831 60.6791C181.862 64.9537 182.738 68.7937 181.719 66.7804ZM180.814 68.7097C180.571 67.9004 180.275 66.4151 179.943 64.6204C179.591 62.8324 179.303 60.7151 178.776 58.7164C178.218 56.3737 177.647 54.1311 177.132 52.5804C177.294 52.8364 177.455 53.1057 177.616 53.3697C178.088 55.2844 178.675 57.5071 179.266 59.6484C180.411 64.5497 181.331 69.0911 180.814 68.7097ZM175.298 49.7938C175.594 50.2204 175.891 50.6577 176.191 51.1124C176.51 52.6617 177.726 56.9964 178.402 59.4057C177.364 55.8084 176.295 52.5684 175.298 49.7938ZM176.714 112.359C175.419 120.843 172.767 128.867 168.686 135.96C164.686 143.115 158.956 149.098 152.344 154.076C152.523 154.435 154.2 153.676 152.09 155.508C150.288 156.787 148.604 158.046 146.739 158.96C145.826 159.443 144.932 159.924 144.023 160.368C143.087 160.767 142.156 161.164 141.226 161.56C139.402 162.407 137.42 162.98 135.507 163.774C134.516 164.119 133.516 164.471 132.496 164.828C131.483 165.207 130.456 165.608 129.372 165.967C129.231 166.234 129.084 166.51 128.94 166.783C122.086 168.622 114.687 169.788 107.094 170.255C103.614 170.608 100.118 170.902 96.6324 170.954C94.8591 171.036 93.2191 170.968 91.5417 170.954C89.8711 170.894 88.2044 170.779 86.5417 170.632C79.9079 169.951 73.35 168.504 67.124 166.126C67.3595 166.475 67.4365 166.74 66.1599 166.332C60.9079 164.44 54.0765 160.591 47.8532 155.552L46.4204 154.503C45.9625 154.131 45.5068 153.76 45.0547 153.394C44.2735 152.903 43.9417 152.919 43.736 152.928C41.0547 150.454 38.7995 148.11 36.9183 145.767C30.2032 138.503 24.8256 129.867 21.2839 120.375C17.7328 110.891 16.0407 100.543 16.4235 90.0431C16.7969 79.5577 19.3125 68.9577 24.0208 59.0817C28.7125 49.2084 35.5808 40.0484 44.3437 32.6004C51.5313 26.0417 60.0661 20.7471 69.0557 17.5444C70.7041 16.9057 72.4844 16.4778 74.2751 15.9298C76.1016 15.5204 77.9532 15.0057 79.8803 14.7124C83.7041 13.9737 87.7137 13.6218 91.7071 13.4964C95.7057 13.3378 99.6911 13.6378 103.51 14.0218C107.318 14.5124 110.964 15.1577 114.29 16.0137C113.504 14.6191 121.494 15.5458 128.736 17.8604C135.971 20.0644 142.4 23.3084 139.999 20.4151C144.192 22.9444 149.134 26.5844 152.891 29.8777C156.676 33.1377 159.363 35.9337 159.879 35.9777C160.646 36.0511 161.595 36.4151 162.944 37.1884C164.314 37.9458 165.948 39.2258 168.06 41.1644C168.072 41.1778 168.087 41.1911 168.1 41.2044C168.387 42.3444 168.651 43.4777 168.91 44.5844C169.372 46.5751 169.819 48.4964 170.236 50.2951C171.056 53.8898 171.567 57.0217 172.218 59.2124C172.51 60.3257 172.844 61.4337 173.103 62.5511L173.838 65.9057C174.303 68.1431 174.872 70.3737 175.262 72.6137L176.367 79.3351C176.58 80.4551 176.684 81.5737 176.798 82.6924L177.152 86.0471C178.006 94.9751 178.022 103.871 176.714 112.359ZM171.588 44.9417C171.831 45.9511 172.119 47.0937 172.464 48.4164C172.058 47.2244 171.651 45.9018 171.234 44.5298C171.35 44.6644 171.468 44.8031 171.588 44.9417ZM195.724 99.8391C195.663 98.6017 195.638 97.3577 195.538 96.1244L195.123 92.4404C194.826 89.9871 194.612 87.5177 194.107 85.1111C193.656 82.6937 193.239 80.2724 192.748 77.8751L191.003 70.7751C191.202 73.0271 191.392 75.1937 191.574 77.2537C191.76 79.3017 191.71 81.2858 191.764 83.0964C191.335 78.1684 190.318 73.3737 189.6 69.2844C188.686 65.2484 187.787 61.9871 187.17 60.2097C186.834 58.9537 186.462 57.8444 186.102 56.8551C185.743 55.8684 185.427 54.9897 185.146 54.2137C184.568 52.6697 184.111 51.5471 183.748 50.7764C183.024 49.2377 182.69 49.1084 182.582 49.8351C182.376 51.1617 182.959 55.2817 183.26 59.0057C183.088 58.5857 182.931 58.1604 182.754 57.7431C178.915 48.7871 173.702 40.4644 167.376 33.1271C166.775 31.5031 166.176 29.9391 165.59 28.5084C165.586 28.5177 165.591 28.5458 165.59 28.5604C166.024 29.7324 166.558 31.2431 167.108 32.8137C167.023 32.7151 166.942 32.6151 166.855 32.5178C166.456 31.4604 166.058 30.4057 165.659 29.3497C165.723 29.9417 165.815 30.6057 165.92 31.3004C165.95 31.3871 165.98 31.4751 166.01 31.5604C152.563 16.5364 134.263 6.04975 114.567 1.98308C94.7017 -2.15558 73.5729 0.212409 55.0391 8.80707C36.4808 17.2977 20.8099 31.9924 10.8817 50.1697C9.3568 53.3444 6.67453 58.7977 4.30893 66.4177C1.9428 74.0124 0 83.8337 0 95.0257C0.0068 106.186 2.02613 118.791 7.07653 131.076C9.59013 137.207 12.7917 143.266 16.7344 148.951C20.6704 154.639 25.2865 159.986 30.4625 164.79C40.7907 174.436 53.5115 181.662 66.7412 185.784C73.3672 187.822 80.1095 189.09 86.7191 189.643C88.3724 189.762 90.0124 189.92 91.6471 189.928C93.2777 189.967 94.9177 190.031 96.4564 189.975C99.5777 189.95 102.634 189.784 105.626 189.562C111.61 189.12 117.316 188.246 122.674 187.144C128.036 186.083 133.024 184.627 137.592 183.107C146.719 179.978 154.026 176.127 159.166 172.899C160.388 172.066 161.604 171.238 162.82 170.41C168.234 166.53 173.534 161.736 178.122 156.14C179.22 154.703 180.43 153.339 181.426 151.815L184.426 147.247C185.311 145.659 186.164 144.052 187.018 142.454L187.655 141.254L188.195 140.016L189.256 137.539L190.3 135.071C190.62 134.242 190.867 133.395 191.15 132.56C191.682 130.886 192.266 129.231 192.723 127.571C193.471 124.223 194.386 120.951 194.732 117.727C194.954 116.12 195.171 114.536 195.386 112.979C195.478 111.424 195.57 109.895 195.659 108.395C195.714 106.899 195.884 105.424 195.822 104.003C195.788 102.582 195.755 101.192 195.724 99.8391Z" fill="#00D2DE"/>
</svg>
