<svg width="55" height="55" viewBox="0 0 187 184" fill="none" xmlns="http://www.w3.org/2000/svg">
<path d="M177.232 87.9355C177.2 87.6995 177.168 87.4768 177.136 87.2448C177.381 85.3728 177.508 82.7382 177.32 79.2195C177.744 81.9275 178.125 84.7715 178.421 87.7795C178.124 87.8195 177.529 87.8968 177.232 87.9355ZM175.068 67.6288C174.848 66.8568 174.638 66.1235 174.448 65.4568C174.225 64.8022 174.027 64.2128 173.86 63.7182C173.525 62.7288 173.32 62.1195 173.32 62.1195C173.276 61.4822 173.349 61.1382 173.486 60.9648C173.628 61.5648 173.769 62.1688 173.92 62.8035C174.317 64.3755 174.73 66.0781 175.145 67.8955C175.118 67.8088 175.094 67.7168 175.068 67.6288ZM173.186 107.445C172.449 112.07 171.542 116.664 169.822 120.937C169.654 121.486 169.467 122.103 169.261 122.773C169 123.419 168.719 124.115 168.425 124.846C168.135 125.578 167.829 126.343 167.518 127.125C167.164 127.888 166.764 128.646 166.388 129.417C165.998 130.181 165.646 130.965 165.238 131.7C164.806 132.419 164.381 133.124 163.977 133.798C163.564 134.467 163.209 135.131 162.814 135.706C162.41 136.276 162.037 136.8 161.705 137.267C153.96 148.288 142.552 156.612 129.91 161.936C117.28 167.277 103.375 170.054 89.8798 169.694C76.4158 169.377 63.1892 165.438 51.7265 158.59C40.2932 151.698 30.6052 141.931 23.9865 130.385C17.2798 118.889 13.6785 105.674 13.4798 92.3755C13.2185 79.0635 16.4372 65.7568 22.7145 54.0248C25.8598 48.1648 29.7612 42.7021 34.2692 37.7928C38.8198 32.9275 43.9199 28.5408 49.5625 24.9648C60.7692 17.6875 73.9145 13.4568 87.3212 12.6942C82.9958 12.8848 78.7199 13.5315 74.5292 14.4502C70.3412 15.3902 66.2185 16.6115 62.2692 18.2462C54.3598 21.4648 46.9745 25.9128 40.5545 31.4675C27.6118 42.4728 18.5292 57.7021 14.8998 74.1755C14.0105 78.2981 13.4039 82.4861 13.1599 86.7088C12.9479 90.9328 13.0372 95.1755 13.4385 99.3902C14.3518 107.803 16.5038 116.117 20.0758 123.857C27.0638 139.4 39.4265 152.65 54.8198 160.867C54.2705 160.789 52.8265 160.281 54.9878 161.624C39.0025 153.602 26.1545 139.971 19.0358 123.959C11.7758 107.994 10.3105 89.7035 14.3932 72.8888C18.3985 56.0235 28.1945 40.7262 41.6345 29.6955C48.3945 24.2315 55.9985 19.7422 64.2145 16.6448C72.4252 13.5515 81.1812 11.7062 90.1225 11.3995C90.1305 11.6982 90.1465 12.2888 90.1532 12.5915C96.3545 12.4755 102.584 13.0128 108.647 14.3715C114.709 15.7195 120.617 17.7808 126.223 20.5035C131.803 23.2822 137.068 26.7168 141.882 30.7155C146.666 34.7542 150.976 39.3688 154.713 44.4182C160.992 52.7768 165.1 60.8568 168.052 67.9142C165.533 58.8315 161.288 50.0582 155.495 42.2568C149.711 34.4515 142.388 27.6222 133.974 22.3368C125.556 17.0608 116.057 13.3515 106.132 11.5488C96.2105 9.74216 85.8599 9.78216 75.8625 11.7528C65.8652 13.7382 56.2292 17.6782 47.6532 23.2795C39.0718 28.8728 31.5545 36.1182 25.6425 44.4835C19.7198 52.8422 15.4158 62.3168 13.0158 72.2235C10.6078 82.1248 10.0639 92.4702 11.4225 102.495C10.7865 98.2742 10.5878 93.9155 10.6438 89.5155C10.6905 85.1115 11.1305 80.6568 11.9518 76.2355C12.7638 71.8142 13.9225 67.4141 15.4692 63.1275C17.0398 58.8515 18.9679 54.6861 21.2319 50.7101C30.2092 34.7021 45.0238 22.2848 60.8372 16.0515C83.4145 6.94883 108.461 8.52882 128.315 18.7155C147.515 28.3822 162.066 45.6222 168.252 65.4222C168.072 65.3688 167.859 65.1928 167.591 64.8248C168.689 67.9942 169.659 71.2008 170.497 74.4301L170.541 74.6435C170.578 74.7648 170.613 74.8782 170.65 74.9982C172.182 81.0288 173.22 87.1368 173.589 93.2408C173.972 98.0248 173.684 102.777 173.186 107.445ZM38.9332 19.4755C56.0438 6.93415 77.6785 0.804819 98.6852 2.61149C115.82 3.84749 132.642 10.2715 146.308 20.9035C156.722 28.9448 165.309 39.3768 171.25 51.1635C171.324 51.6808 171.427 52.2675 171.56 52.9328C165.677 40.4595 156.812 29.3702 145.865 20.8875C132.409 10.3822 115.779 3.91949 98.6852 2.61149C87.9972 1.81549 77.1758 2.86749 66.9358 5.88349C56.6905 8.86216 47.0305 13.6808 38.5172 19.9862C21.4718 32.5928 9.20252 51.2195 4.36119 71.5822C9.17586 50.7075 21.8172 31.9781 38.9332 19.4755ZM173.836 51.3822C173.51 50.8315 173.225 50.3968 172.957 50.0142C172.145 48.2955 171.163 46.4048 169.965 44.3968C167.209 39.7382 163.441 34.4755 158.786 29.5568C154.158 24.6182 148.714 20.0008 143.114 16.2168C137.512 12.4262 131.761 9.50616 126.789 7.37283C119.959 4.43683 112.678 2.21682 105.142 1.08216C97.6118 -0.0565105 89.8758 -0.343173 82.1665 0.452827C66.7558 1.99949 51.5105 7.6315 38.7438 16.8248C32.3052 21.3435 26.5625 26.8128 21.4838 32.7902C16.5092 38.8568 12.1678 45.4608 8.88518 52.5475C5.55451 59.6075 3.10785 67.0502 1.69185 74.6355C0.23452 82.2155 -0.286822 89.9022 0.149178 97.4688C1.20918 119.549 11.0332 141.081 26.7385 156.676C42.4065 172.325 63.9092 182.034 85.9785 183.238C93.5732 183.702 101.156 183.205 108.653 182.015C116.148 180.822 123.557 178.907 130.731 176.249C137.896 173.581 144.845 170.186 151.27 165.922C157.693 161.667 163.606 156.573 168.621 150.722C173.642 144.881 177.726 138.282 180.642 131.347C183.541 124.414 185.408 117.19 186.105 110.109C187.573 95.9155 185.524 82.5608 182.073 71.0808C179.016 60.8182 175.764 54.6568 173.836 51.3822Z" fill="#00D2DE"/>
</svg>
