<svg width="55" height="55" viewBox="0 0 187 182" fill="none" xmlns="http://www.w3.org/2000/svg">
<path d="M181.459 120.745C177.804 133.396 170.839 144.622 161.008 154.029C160.317 154.629 159.636 155.221 158.956 155.812C157.945 156.634 156.937 157.462 155.851 158.191L156.288 157.847C157.653 156.812 158.895 155.608 160.207 154.489L159.459 155.084C164.375 150.607 168.748 145.488 172.344 139.876C177.789 131.877 181.432 121.898 183.056 111.572C182.663 114.843 182.115 117.921 181.459 120.745ZM174.721 78.6839L173.164 75.5359L173.131 75.2279L174.721 78.6839ZM154.195 141.293L151.679 143.936C149.88 145.585 148.113 147.267 146.153 148.75C142.296 151.771 138.153 154.483 133.733 156.75C124.899 161.277 115.236 164.447 105.307 166.031C100.349 166.837 95.3268 167.283 90.3415 167.289C85.3815 167.303 80.4148 166.821 75.5216 165.869C65.7341 163.974 56.2248 160.149 47.67 154.529C22.2888 137.81 9.12214 108.352 13.4607 78.6319C15.3695 64.4412 21.1691 51.0519 29.9424 40.0252C38.7357 29.0146 50.4451 20.3839 63.7123 15.2692C74.8904 11.0359 85.5988 9.52258 95.9281 9.75325C106.253 10.0319 116.296 12.1092 126.24 16.4932C126.811 16.7639 126.885 16.7492 126.603 16.5639C126.177 16.2866 125.36 15.9452 124.839 15.7252C109.053 8.79457 91.0508 7.03323 74.0205 10.8546C57.0128 14.6546 41.0013 24.1172 29.2967 38.0879C26.6273 41.2906 24.2003 44.6026 22.0752 48.0599C21.8112 48.4226 21.5795 48.8599 21.306 49.3159C19.3487 52.4479 17.7445 55.8026 16.2429 59.1852C16.7248 57.9892 17.2888 56.8306 17.806 55.6452C18.9383 53.3532 19.8461 51.3492 19.8331 51.1306C19.7872 51.0972 19.5404 51.3746 19.2341 51.8906C23.6117 43.4346 29.3315 35.8772 36.1248 29.4426C37.182 28.5306 38.1628 27.6159 39.1341 26.7999C40.1091 25.9919 41.03 25.2292 41.8861 24.5212C50.6341 18.1279 60.6628 13.4639 71.2279 10.9786L73.8549 10.4159C75.6049 10.0892 77.3175 9.77191 78.8148 9.49324C80.3148 9.26524 81.5828 9.03458 82.4255 8.84791C82.9721 8.75591 83.2961 8.67857 83.4561 8.61191C95.8081 7.39991 108.58 8.91725 120.191 13.2852C126.005 15.4359 131.544 18.2199 136.676 21.5212C141.799 24.8332 146.489 28.6852 150.691 32.8786C151.543 33.7319 152.029 34.1519 151.945 33.9666C152.243 34.3039 152.631 34.7439 152.983 35.1426C153.952 36.1786 154.995 37.2679 155.971 38.4999C156.469 39.1066 156.977 39.7279 157.495 40.3572C157.98 41.0132 158.473 41.6786 158.972 42.3532C159.416 42.9359 159.68 43.2412 159.511 42.9426C159.344 42.6346 158.877 41.9466 158.481 41.4212C157.489 40.0159 156.356 38.7386 155.316 37.4519C154.229 36.2026 153.131 35.0226 152.067 33.9119C151.831 33.6826 151.664 33.5372 151.608 33.5106C151.165 32.9852 150.431 32.1879 149.676 31.4212C140.9 22.7812 130.375 16.2599 118.975 12.2559C107.561 8.28657 95.2895 6.83057 83.0161 7.99324C94.9908 6.65457 107.647 7.8719 119.956 12.2906C123.677 13.6052 127.199 15.2252 130.619 16.9626C134.003 18.7692 137.253 20.7559 140.364 22.9639C146.544 27.4212 152.207 32.6959 157.147 39.0186C157.665 39.6732 158.04 40.0892 158.012 39.9986C157.988 39.8839 157.585 39.3279 157.069 38.6852C146.864 25.7466 133.569 16.7412 118.979 11.7306C115.316 10.4959 111.569 9.51458 107.756 8.75325C103.928 8.08258 100.051 7.51457 96.0975 7.35724C92.1521 7.1719 88.1455 7.17991 84.1121 7.56524C82.0868 7.68524 80.0708 8.02391 78.03 8.27857C76.0076 8.65591 73.9555 8.97324 71.9232 9.49057L69.9981 9.93325C69.3653 10.1106 68.7357 10.2879 68.1091 10.4639C77.9607 7.33591 88.2828 6.02258 98.5201 6.65191C114.08 7.99991 129.187 13.8092 141.627 23.1746C154.107 32.4906 163.88 45.3106 169.565 59.7079C170.145 61.1052 170.565 62.2532 170.635 62.1919C170.699 62.1372 170.369 60.8826 169.788 59.4852C163.556 42.9959 151.941 28.4146 136.977 18.6799C138.06 19.3026 139.092 19.9919 140.129 20.6959C141.16 21.3932 142.167 22.1186 143.139 22.8932C152.199 29.9532 159.836 38.8399 165.456 48.9172C167.523 52.6959 169.077 55.9119 169.389 56.0292C169.605 56.0159 168.533 52.9572 166.573 49.2492C166.896 49.8452 167.213 50.4372 167.536 51.0372C167.857 51.6426 168.12 52.0586 168.065 51.8772C167.979 51.6212 167.603 50.8306 167.289 50.2412C166.728 49.1479 166.091 48.1119 165.461 47.0772C164.845 46.0346 164.211 45.0119 163.517 44.0212C157.633 34.6532 149.896 26.4426 140.888 19.9919C131.885 13.5319 121.611 8.84791 110.828 6.29858C122.455 8.92924 133.635 14.0692 143.279 21.3999C152.939 28.6999 161.111 38.0999 166.987 48.8452C166.721 48.4252 166.655 48.3986 166.921 48.9452C167.136 49.4199 167.608 50.3399 167.861 50.7759C168.155 51.2786 168.152 51.1692 167.935 50.6866C167.925 50.6652 167.92 50.6559 167.911 50.6372C171.135 56.8306 173.533 63.4519 175.123 70.2732C174.659 69.7199 174.712 70.9346 175.017 73.0066C174.677 72.2732 174.448 71.9559 174.343 72.0932C173.196 69.2439 172.348 67.5279 171.777 66.8772L171.367 66.6266C171.343 67.5479 171.779 70.0546 172.603 73.6999C172.68 74.0706 172.76 74.4386 172.805 74.8146C172.652 74.4852 172.468 74.1639 172.281 73.8439C172.412 75.0946 172.565 76.5626 172.732 78.1639C172.899 79.8026 173.209 81.5759 173.269 83.4066C173.376 85.2306 173.52 87.0772 173.592 88.8239C173.572 90.5772 173.544 92.2266 173.492 93.6492C173.537 95.0746 173.367 96.4892 173.276 97.8999C173.212 98.6679 173.155 99.5452 173.104 100.52C173.069 101.495 172.876 102.549 172.773 103.693C172.629 104.829 172.569 106.059 172.367 107.331C172.156 108.6 171.935 109.932 171.704 111.312C171.385 113.257 170.812 115.14 170.392 117.056C170.06 118.247 169.663 119.405 169.303 120.595C169.657 119.071 170.061 117.752 170.203 116.571C170.359 115.392 170.464 114.417 170.515 113.669C170.625 112.174 170.479 111.58 170.113 112.084C169.44 112.94 168.444 116.71 166.431 121.719C164.432 126.733 161.121 132.857 156.551 138.52C155.755 139.437 155.055 140.428 154.195 141.293ZM179.668 95.0559C179.691 94.7599 179.711 94.4359 179.708 94.0719C179.708 94.0719 179.707 94.4639 179.668 95.0559ZM179.595 95.8799C179.613 95.6399 179.641 95.3759 179.667 95.0812C179.649 95.3266 179.628 95.5959 179.595 95.9026C179.595 95.8866 179.595 95.8799 179.595 95.8799ZM176.108 66.8919C176.205 67.3039 176.267 67.6252 176.368 68.1532C176.368 68.1532 176.368 68.1479 176.108 66.8919ZM157.767 34.4172C155.779 32.0626 153.708 29.7732 151.491 27.6306C153.405 29.3039 154.623 30.4546 154.896 30.4319C155.147 30.4346 154.385 29.3892 152.973 27.7359C160.597 35.1946 166.825 43.9732 171.329 53.4306C171.308 53.6759 171.489 54.4972 171.939 56.5466C171.939 56.5466 172.1 57.0012 172.341 57.8466C172.573 58.6932 172.921 59.9146 173.376 61.4132C174.491 64.8719 174.575 64.8439 175.631 68.9159C175.631 68.9159 175.86 69.8012 176.259 71.3279C176.48 72.4852 176.544 72.7372 176.672 73.6026C176.672 73.6026 176.673 73.6092 176.676 73.6226C176.479 72.8452 176.231 72.0986 176.033 71.4759C175.443 69.6786 175.233 69.4679 175.569 71.0159C175.504 70.8786 175.452 70.7946 175.393 70.6906C174.296 65.8559 172.8 61.1159 170.869 56.5626C166.629 46.4999 160.459 37.3079 152.859 29.6039C145.267 21.8919 136.248 15.6679 126.467 11.3359C116.687 7.00125 106.157 4.53457 95.6228 4.09457C93.3308 4.02124 91.0255 3.90524 88.7161 4.01191L88.7135 4.00924C87.9841 3.86657 86.4508 3.69591 84.3695 3.76658C99.3228 2.54925 114.511 5.33057 128.12 11.6919C139.407 17.1026 149.465 25.0012 157.489 34.6226C158.628 36.0239 159.6 37.1799 159.712 37.1466C159.815 37.1386 158.961 35.9012 157.767 34.4172ZM167.395 143.298C171.379 138.009 174.743 132.053 177.084 125.528C177.533 124.32 177.867 123.083 178.247 121.879C178.611 120.669 178.996 119.484 179.204 118.285C179.6 116.969 180.007 115.619 180.443 114.167C180.807 112.685 181.096 111.062 181.451 109.236C180.699 115.4 178.819 122.34 176.256 128.361C173.419 135.048 169.588 141.162 165.007 146.552C165.527 145.908 166.047 145.262 166.573 144.61C167.069 143.968 167.977 142.657 167.395 143.298ZM17.0128 39.8892C21.0352 34.0786 25.7175 28.6679 31.0883 23.8372C43.5232 12.6132 58.9424 5.17324 75.0117 2.27858C91.0735 -0.673425 107.749 0.846576 122.848 6.52924C137.971 12.1559 151.399 21.9786 161.456 34.5346C165.863 39.9666 169.564 45.9612 172.589 52.2879C172.697 52.7119 172.881 53.3092 173.135 54.0626C173.428 54.8946 173.781 55.8919 174.177 57.0172C174.556 58.1666 174.975 59.4426 175.423 60.8039C175.899 62.1586 176.355 63.4652 176.78 64.6732C176.792 64.7146 176.804 64.7506 176.817 64.7932C176.951 65.2359 177.077 65.6799 177.192 66.1306C177.728 68.1439 178.265 70.1706 178.803 72.1959C179.684 76.2999 180.6 80.3879 181.032 84.4426C181.184 85.7172 181.471 87.2559 181.603 87.9252C181.704 88.4986 181.788 87.9252 181.6 86.6079C181.539 86.1252 181.483 85.6439 181.424 85.1626C181.432 85.1519 181.44 85.1466 181.447 85.1279C181.516 84.9012 181.543 83.9559 181.491 82.6052C182.295 88.0852 182.696 93.5452 182.571 98.8079C182.565 99.2532 182.427 98.5066 182.388 99.3252C182.371 99.7372 182.353 100.159 182.335 100.599C182.343 99.2279 182.348 97.7812 182.356 96.2266C182.331 94.7586 182.165 93.5359 182.045 92.4906C181.927 91.4479 181.828 90.5839 181.744 89.8532C181.579 88.3932 181.481 87.4692 181.321 86.7292C181.32 86.7212 181.319 86.7026 181.319 86.7026C181.319 86.7026 181.316 86.6906 181.233 86.2559C181.109 85.5679 180.999 84.9666 180.839 84.0946C180.839 84.0946 180.835 84.1026 180.828 84.1026C180.795 83.9306 180.761 83.7479 180.725 83.5559C180.604 82.6999 180.481 81.8439 180.359 80.9812C180.232 80.0119 179.959 79.1039 179.836 78.6452C179.789 78.3039 179.743 77.9426 179.684 77.4946C179.184 75.0786 178.955 73.8626 178.677 72.6439C178.352 71.4412 178.024 70.2212 177.368 67.7839C177.368 67.7839 177.34 67.8026 177.34 67.9732C177.264 67.7879 176.833 66.1572 176.233 64.2932C175.635 62.5079 175.635 62.5092 174.137 58.0452C174.137 58.0452 174.137 58.0452 174.755 60.2372C174.755 60.2372 174.755 60.2372 174.192 58.3252C174.192 58.3252 174.192 58.3252 174.223 58.8666C174.223 58.8666 174.223 58.8666 174.075 57.9452C174.075 57.9452 174.075 57.9452 173.683 57.1786C173.683 57.1786 173.697 57.1639 172.551 53.3986C172.428 53.1172 172.139 52.4479 171.411 50.7679C171.411 50.7679 171.187 50.3239 171.013 49.9799C170.959 49.9586 170.957 49.9572 170.235 48.5692C170.235 48.5692 170.177 48.5559 170.185 48.7186C170.32 49.1826 170.32 49.1826 170.24 49.3479C170.24 49.3479 170.411 49.8746 170.648 50.6159C170.908 51.3226 170.976 51.5052 171.939 54.1212C171.932 54.1092 171.927 54.0986 171.92 54.0866C170.923 51.8692 169.837 49.6959 168.668 47.5732C166.315 43.3359 163.6 39.3212 160.609 35.5426C154.645 27.9626 147.407 21.4572 139.365 16.2026C133.085 11.9506 126.347 8.47058 119.08 5.94925C111.839 3.36258 104.067 1.78257 95.8375 1.22791C83.8468 0.493241 72.0752 2.25457 61.2872 6.12257C50.4909 9.9839 40.6768 15.9186 32.3191 23.4039C30.7549 24.6839 29.3383 26.1239 27.8653 27.4999C26.4737 28.9559 25.0352 30.3679 23.7409 31.9092C21.0596 34.9092 18.6524 38.1306 16.4383 41.4586C16.9633 40.4559 17.2716 39.8532 17.1836 39.7919C17.1596 39.7759 17.0883 39.8306 17.0128 39.8892ZM179.071 71.2026C179.1 71.2986 179.128 71.3959 179.159 71.4919C179.233 71.8372 179.32 72.1799 179.392 72.5266C179.384 72.5052 179.376 72.4839 179.368 72.4639L179.379 72.5052C179.405 72.6506 179.433 72.7972 179.46 72.9426C179.468 72.9679 179.477 72.9919 179.484 73.0172C179.672 73.9492 179.845 74.8852 180.001 75.8239C179.821 74.8626 179.64 73.9012 179.46 72.9426C179.368 72.6079 179.272 72.2746 179.155 71.9479C179.225 72.0852 179.296 72.2652 179.368 72.4639L179.052 71.1772C179.06 71.1892 179.065 71.1932 179.071 71.2026ZM186.215 93.9399C186.255 95.0586 186.18 96.1959 186.167 97.2986L186.185 94.8146C186.185 93.9866 186.1 93.1666 186.056 92.3266C185.945 90.6519 185.827 88.9266 185.665 87.1039C185.651 87.4986 185.633 87.9799 185.62 88.3786C185.591 86.9559 185.333 85.5199 185.161 84.0159C184.961 82.5212 184.769 80.9746 184.52 79.4266C184.197 77.8999 183.872 76.3559 183.547 74.8146C183.205 73.2772 182.899 71.7306 182.436 70.2719C182.001 68.8039 181.572 67.3612 181.159 65.9626C180.945 65.2666 180.735 64.5839 180.529 63.9132C180.288 63.2599 180.052 62.6212 179.82 61.9986C178.881 59.5186 178.011 57.3199 177.264 55.5799C175.599 52.1692 174.844 51.1639 174.968 52.2746C175.031 52.8306 175.312 53.9159 175.805 55.4932C176.281 57.0826 176.847 59.2226 177.651 61.8106C177.803 62.3012 177.947 62.7946 178.092 63.2866C177.891 62.7199 177.687 62.1506 177.487 61.6039C176.931 60.1199 176.4 58.7026 175.907 57.3839C175.295 55.8266 174.671 54.4839 174.1 53.3279C171.107 46.7412 167.439 40.5212 163.007 34.8799C158.347 28.9399 153 23.5212 146.931 18.8786C140.901 14.1852 134.183 10.2492 126.921 7.15991C116.564 2.79457 106.092 0.569237 95.5908 0.0732367C85.0935 -0.32943 74.4825 0.906571 63.7956 4.3239C38.8451 12.4919 19.1576 30.3079 8.68614 53.7612C8.13 54.8972 7.6576 56.0692 7.18827 57.2479C6.70707 58.4199 6.24613 59.6066 5.86333 60.8252C5.00653 63.2652 4.3252 65.7546 3.6872 68.2332C-1.16693 87.7359 0.448669 108.438 8.38414 126.492C-1.3544 104.98 -2.03667 79.7519 6.06387 57.8692C6.668 56.3052 7.00333 55.2439 6.86853 55.3732C6.68467 55.6212 6.0752 57.0052 5.47107 58.5786C-0.0653295 73.9226 -1.48306 90.7279 1.59867 106.749C4.60814 122.779 12.0528 137.957 22.9216 150.077C25.5972 153.621 30.2872 158.838 36.6195 163.717C39.7705 166.171 43.3331 168.498 47.0752 170.644C50.8601 172.715 54.8347 174.577 58.8211 176.072C64.7123 178.271 70.4148 179.638 76.2175 180.447C74.8737 180.192 73.5476 179.937 72.2211 179.685C70.9085 179.367 69.5972 179.049 68.2695 178.729C76.1185 180.631 83.0241 181.197 89.7801 181.098C90.3695 181.131 90.9561 181.145 91.5855 181.126C99.4001 181.215 107.848 180.359 116.207 178.353C124.563 176.353 132.879 173.405 140.445 169.548C140.088 169.64 139.66 169.772 139.293 169.838C140.692 169.153 141.812 168.605 142.967 168.038C144.131 167.498 145.289 166.859 146.765 165.96C145.901 166.41 145.108 166.843 144.239 167.272C144.297 167.241 144.363 167.207 144.421 167.176C146.02 166.26 147.804 165.277 149.616 164.109C151.387 162.873 153.319 161.668 155.105 160.164C159.272 157.221 163.536 153.381 167.535 148.786C171.513 144.186 175.265 138.792 178.063 132.728C178.2 132.434 178.327 132.134 178.46 131.838C178.556 131.662 178.653 131.473 178.753 131.268C179.135 130.461 179.584 129.457 180.079 128.304C180.323 127.724 180.58 127.109 180.849 126.468C181.065 125.805 181.289 125.112 181.521 124.396C181.948 123.138 182.44 121.681 182.752 120.755C185.449 112.565 186.835 101.972 186.068 90.6066C186.117 91.7012 186.165 92.8199 186.215 93.9399Z" fill="#00D2DE"/>
</svg>
