<svg width="55" height="55" viewBox="0 0 189 191" fill="none" xmlns="http://www.w3.org/2000/svg">
<path d="M177.043 104.683L177.232 104.281C177.09 103.971 176.791 102.148 176.416 102.229C176.407 104.355 176.454 106.141 176.902 108.353C176.811 108.767 176.72 109.247 176.623 109.568C176.672 109.559 176.714 109.524 176.772 109.532C176.554 110.26 176.514 110.181 176.358 109.92C176.33 109.887 176.296 109.844 176.267 109.769C175.996 110.101 175.92 110.78 175.948 111.671C175.964 112.561 175.99 113.659 176.074 114.844C176.147 116.028 176.234 117.296 176.258 118.508C176.291 119.719 176.092 120.848 175.863 121.781C175.89 122.913 176.039 121.905 176.091 123.323C175.863 124.277 175.679 125.16 175.455 125.996C175.198 126.82 174.948 127.612 174.699 128.407C174.183 129.987 173.831 131.628 173.091 133.489C173.207 134.84 173.359 135.007 174.274 133.632L173.284 136.532C173.043 135.007 172.387 136.301 171.691 137.501C170.911 138.676 170.162 139.776 170.087 138.185C169.494 138.881 168.85 140.491 168.42 142.08C168.644 142.356 169 142.795 168.084 144.656C167.271 145.853 166.962 146.308 166.687 146.711C166.376 147.089 166.098 147.417 165.307 148.312C164.66 148.565 164.966 147.749 164.626 147.663C163.246 151.019 162.219 149.791 160.332 152.467C159.816 153.373 158.76 154.491 157.996 155.544C157.607 156.067 157.274 156.559 157.063 156.957C156.836 157.343 156.72 157.621 156.834 157.772C154.722 159.68 154.378 159.275 154.179 158.64C153.618 159.14 153.051 159.631 152.418 160.053C158.111 155.449 162.96 149.465 166.527 142.667C165.935 143.529 165.335 144.401 164.731 145.281C164.09 146.125 163.376 146.924 162.715 147.753L161.716 148.989C161.372 149.393 160.975 149.756 160.611 150.143L158.42 152.437C155.311 155.323 152.039 157.931 148.664 160.296C141.827 164.908 134.775 168.735 128.963 173.144C128.406 172.564 126.95 172.328 125.11 172.311C123.23 172.197 120.987 172.375 118.742 172.445C117.623 172.493 116.527 172.577 115.5 172.659C114.463 172.708 113.503 172.779 112.68 172.859C111.042 173.04 109.922 173.177 109.856 173.363C108.131 173.804 106.384 174.236 104.594 174.551C102.812 174.913 100.999 175.185 99.1658 175.425C93.2418 176.192 87.6618 176.437 81.8218 175.761C76.0191 175.125 70.2151 173.587 64.6231 171.321C53.4071 166.819 43.2271 159.069 35.3365 149.392C33.1458 146.709 30.1551 142.756 27.3124 137.847C24.4378 132.96 21.8364 127.068 20.0044 120.949C18.1284 114.841 17.1111 108.497 16.8378 102.849C16.5551 97.1999 16.8925 92.2546 17.4391 88.8239C17.5365 87.8226 17.7631 86.8399 17.9191 85.8492C18.0831 84.8586 18.2484 83.8679 18.4858 82.8826C18.0391 84.5066 17.9418 85.3452 17.7538 86.1679C17.5938 86.9946 17.3844 87.8172 17.1604 89.4932C17.0818 80.9732 18.3084 73.1345 20.6764 65.8799C20.2458 66.4305 19.9164 66.7265 19.4831 67.2359C19.0351 67.7399 18.5204 68.4692 17.7578 69.9212L18.5058 68.0919L19.3458 66.3012C19.3991 65.3599 19.6058 64.1506 20.0271 62.8586C20.4191 61.5532 20.9138 60.1172 21.5404 58.7279C21.8444 58.0279 22.1511 57.3265 22.4485 56.6385C22.7818 55.9665 23.1084 55.3079 23.4191 54.6785C24.0444 53.4199 24.6098 52.2812 25.0524 51.3879C25.1218 52.4332 26.8484 49.8492 28.5351 47.6999L27.5818 48.3506C30.6671 44.1572 34.2698 39.8279 38.1898 35.9852C42.0965 32.1306 46.3124 28.7772 50.2578 26.3012C51.3351 25.5732 52.2991 25.2839 52.9151 25.1772C54.1484 24.3546 55.3898 23.5372 56.6844 22.8092C57.3271 22.4359 57.9604 22.0426 58.6111 21.6826L60.5884 20.6452C60.2791 21.5786 67.6537 18.5026 63.9444 20.5586C66.7937 18.8186 69.9764 17.7532 73.1218 16.7586C76.3018 15.8559 79.4671 15.0732 82.5618 14.1706C93.8538 12.5652 105.875 13.2252 117.392 16.4239C128.92 19.6159 139.879 25.4039 149.292 33.0586L149.054 32.4399C152.368 35.1119 155.584 37.6186 158.624 40.6879C161.646 43.7559 164.57 47.3306 166.998 52.0292C168.494 53.8519 169.959 56.0705 171.334 58.3399C171.151 59.3212 170.92 60.8785 169.966 59.7399C169.052 56.3332 171.419 60.7012 170.231 57.2212C169.974 58.1319 169.675 57.3732 169.328 56.3372C168.943 55.3132 168.491 54.0159 168.019 53.8199C167.991 54.4439 168.164 55.3159 168.443 56.2586C168.703 57.2092 169.024 58.2425 169.372 59.1705L169.387 58.7506C170.01 60.3786 171.207 63.6706 171.222 65.6239C170.754 65.2946 170.73 66.1546 170.282 64.9546L170.899 67.2639C171.094 67.5252 171.286 67.7972 171.175 67.1119C171.739 68.1265 171.848 69.2679 171.862 70.1599C171.711 70.3346 172.866 73.3132 174.023 76.2332C175.144 79.1572 176.084 82.0666 175.955 81.8932C176.122 82.6986 176.104 83.2359 176.114 83.7479C175.712 82.2532 175.092 80.1012 174.483 78.0385C173.271 74.3519 171.996 70.9732 172.346 72.0599C172.303 72.8279 174.059 77.4146 175.342 82.0946C176.82 86.7346 177.791 91.4572 177.538 92.0346C177.752 93.2972 178.055 94.8172 178.391 94.4719C178.523 96.6399 177.574 93.9212 177.443 95.4879C177.507 95.5146 177.615 95.3412 177.671 95.8279L177.324 97.3492C177.767 98.9812 177.906 101.043 178.071 103.116C178.243 105.191 178.203 107.284 178.671 109.027C178.231 108.019 177.475 106.888 177.043 104.683ZM167.498 34.2626C167.379 34.4879 167.199 34.5346 167.003 34.3452C166.747 33.6239 167.004 33.7412 167.498 34.2626ZM170.554 35.6186C170.731 36.7572 171.538 38.9186 171.12 38.8599C171.216 38.9812 171.292 39.0759 171.351 39.1452L171.498 39.9705C171.206 39.5532 170.79 38.7759 170.424 37.9479C170.554 38.1186 170.675 38.2786 170.787 38.4266C170.776 37.6426 169.858 35.5226 169.368 34.3226C169.094 34.4159 169.224 34.8706 169.088 34.8866C168.835 34.5399 168.555 34.0292 168.284 33.5159C168.206 33.3452 168.123 33.1772 168.044 33.0119L167.972 32.6705C167.77 32.3225 167.578 31.9199 167.403 31.5599C167.312 31.2759 167.263 31.0092 167.28 30.7666C167.49 30.9986 167.654 31.6266 167.807 32.0586C167.466 31.1026 169.023 33.3626 170.554 35.6186ZM188.624 98.7839C188.138 96.9039 188.252 95.4812 188.323 94.0946C188.37 92.7159 188.456 91.3506 188.042 89.5959C187.716 89.4519 187.486 88.1626 187.323 86.8999C187.708 86.8052 187.554 85.8332 187.387 84.8972C187.18 83.9759 186.972 83.0879 187.346 83.1119L187.28 83.0866C187.143 82.3346 186.987 81.8119 186.938 80.8705C186.804 80.5252 186.398 79.4652 185.852 78.0452C185.382 76.8105 184.826 75.2999 184.171 73.7932C182.566 65.2999 179.752 56.9692 175.74 49.1772C175.506 48.7212 175.244 48.2786 175.002 47.8266C174.691 46.6546 174.206 45.2826 174.08 44.5639C173.875 44.3132 173.572 43.4186 173.218 42.3586C172.843 41.3079 172.383 40.1092 171.939 39.2146C172.566 39.5866 172.306 38.7612 172.031 37.8025C171.944 37.6759 171.848 37.5292 171.755 37.3892C171.848 37.5252 171.939 37.6572 172.026 37.7852C171.883 37.2852 171.736 36.7506 171.712 36.3292C171.314 35.0466 170.747 34.3452 170.714 34.9412C170.526 34.9119 170.496 35.1519 170.542 35.5132C168.806 32.7826 166.868 29.6092 167.132 30.3452C167.22 30.7666 167.124 30.8266 166.982 30.7839C166.875 30.6372 166.782 30.5786 166.708 30.6586C166.49 30.5399 166.302 30.4706 166.45 31.0452L166.823 31.4826C167.807 34.3452 166.248 33.3652 164.822 32.6452C161.072 28.1039 156.891 23.8852 152.302 20.1066C145.506 15.0919 137.908 10.5999 129.75 7.11323C125.671 5.36656 121.431 3.96122 117.144 2.77456C112.832 1.69456 108.47 0.834563 104.106 0.415897C94.7151 -0.49077 84.8391 0.0918877 75.6338 2.17322C66.4285 4.23589 57.9524 7.71324 51.0804 11.7279C49.4391 12.6866 47.9751 13.3999 46.5258 14.0319C45.0578 14.6279 43.6618 15.2239 42.1844 15.9519C36.1005 20.1279 29.7084 25.5972 23.9658 31.9906C21.1524 35.2332 18.4484 38.6532 16.0791 42.2586C13.7418 45.8786 11.5791 49.5772 9.89246 53.3559C10.0431 53.0839 10.1871 52.8186 10.2831 52.6466C6.49642 60.5252 3.47511 66.5212 1.67645 74.9852C1.92445 74.9959 1.63777 76.2986 1.62977 76.9559C1.33377 77.2706 0.58579 80.5626 0.220456 85.4159C-0.147544 90.2639 -0.0982284 96.6439 0.701772 102.967C1.4631 109.299 2.98047 115.529 4.46447 120.271C4.84713 121.453 5.20309 122.552 5.52443 123.547C5.88043 124.529 6.19777 125.408 6.47111 126.164C6.98977 127.681 7.35376 128.696 7.42443 129.067C7.78043 129.868 8.15113 130.699 8.52846 131.545C11.6445 139.868 15.6858 148.113 20.7645 155.427C25.8298 162.719 31.8605 169.105 38.2845 173.624C39.8138 174.419 41.4258 175.257 43.0338 175.96C44.6098 176.712 46.1737 177.325 47.5497 177.768C49.6631 179.591 50.6204 178.937 53.4578 180.573C56.7244 183.393 59.7738 184.927 61.4191 185.497C63.0964 186.017 63.3658 185.651 61.4604 184.568C68.0191 186.679 74.7058 188.476 80.7791 189.231C83.6084 189.476 86.4244 189.524 89.2684 189.489C91.6711 189.352 93.0378 189.759 94.2164 190.271C97.2178 190.069 98.2724 190.129 99.3751 190.199C100.476 190.261 101.614 190.484 104.786 190.369C105.182 190.54 106.37 190.477 107.951 190.287C109.535 190.048 111.512 189.681 113.486 189.257C115.456 188.773 117.428 188.336 119.008 187.895C120.591 187.461 121.792 187.159 122.247 187.137L121.244 187.439C123.066 187.175 124.742 186.897 126.359 186.701C127.978 186.529 129.524 186.325 131.071 186.097C132.62 185.891 134.171 185.669 135.766 185.271C137.363 184.892 139.032 184.5 140.772 183.783C150.559 180.357 160.438 174.423 168.088 166.269C169.018 165.229 169.944 164.192 170.87 163.157C171.756 162.095 172.544 160.953 173.376 159.857L174.598 158.2C174.983 157.635 175.32 157.041 175.68 156.465C176.387 155.303 177.088 154.147 177.786 152.999C178.411 151.816 178.976 150.615 179.564 149.435C180.142 148.251 180.758 147.089 181.183 145.876C182.094 143.473 183.128 141.139 183.748 138.772C183.378 138.561 183.126 139.608 182.824 140.697C182.476 141.777 181.999 142.881 181.454 142.8C185.655 132.064 187.836 120.629 187.844 109.372C188.015 107.347 188.362 104.841 188.598 103.895C188.627 100.301 188.027 101.816 187.91 99.2025L188.624 98.7839Z" fill="#00D2DE"/>
</svg>
