<svg width="55" height="55" viewBox="0 0 481 553" fill="none" xmlns="http://www.w3.org/2000/svg">
<path d="M438.579 18.8987C438.284 18.992 437.984 19.044 437.697 19.4173C437.984 19.4933 438.281 19.156 438.579 18.8987ZM417.527 60.6253L416.307 61.896L416.372 61.8693C416.545 61.6933 416.732 61.5306 416.936 61.384L417.527 60.6253ZM410.339 58.712L409.789 59.1333C409.228 59.5733 408.664 59.9654 408.097 60.3014C408.277 60.528 408.323 60.8614 408.203 61.3267C408.161 61.4174 408.123 61.5014 408.083 61.588C408.257 61.3707 408.428 61.1507 408.591 60.9253C408.922 60.4213 409.289 59.932 409.679 59.4506C409.892 59.1973 410.113 58.952 410.339 58.712ZM414.055 64.0413C413.852 64.2067 413.647 64.3733 413.437 64.544C412.456 65.2947 411.401 65.7454 410.468 66.724C410.069 67.14 409.68 67.564 409.309 68.0027L409.192 68.192C409.797 67.5747 410.435 67.012 411.105 66.5094C411.919 65.94 412.724 65.54 413.516 65.2187L414.18 64.9387L414.008 64.7094L414.055 64.0413ZM220.619 224.764L220.555 224.857H220.616L220.619 224.764ZM236.108 294.844C233.9 297.537 230.777 299.737 229.604 302.977C230.687 302.084 231.704 301.551 232.535 301.937C232.599 301.937 232.649 301.937 232.709 301.951C232.681 301.657 232.58 301.404 232.38 301.164C233.165 299.337 234.461 297.777 235.993 296.337L236.259 296.151C236.017 295.844 235.995 295.391 236.108 294.844ZM216.731 319.911C216.535 320.097 216.403 320.311 216.331 320.577L216.731 319.911ZM153.104 302.884C151.652 305.484 148.632 307.524 147.537 310.257C149.875 308.084 151.8 305.671 153.104 302.884ZM107.649 366.217L106.593 367.311C106.603 367.391 106.601 367.484 106.592 367.591L107.029 367.031C107.239 366.751 107.444 366.484 107.649 366.217ZM50.8295 453.297L50.2841 454.071C49.8881 454.644 49.4975 455.204 49.1015 455.764C48.7881 456.217 48.4615 456.657 48.1281 457.084L46.7655 459.537C46.5281 460.284 46.1521 460.991 45.6561 461.684L45.1361 462.297C45.2055 462.311 45.2508 462.351 45.2495 462.471C45.2428 462.751 45.1748 462.991 45.0388 463.191L45.3441 463.151C45.6121 462.644 45.8775 462.137 46.1468 461.631C46.5201 460.791 46.9001 459.937 47.2735 459.097C47.8281 457.951 48.5015 456.844 49.2255 455.751C49.5641 455.217 49.9268 454.697 50.2868 454.177L50.8295 453.297ZM44.8055 464.097L44.4268 464.711L43.4308 466.204L42.8455 466.897L42.4228 467.697L41.1255 469.324C41.3535 469.271 41.5695 469.244 41.7695 469.284C42.1135 469.817 41.8881 470.617 41.4001 471.497C41.4495 471.417 40.9268 471.897 40.9268 471.897C40.9268 471.897 41.3775 471.884 41.3895 471.857C41.5041 471.364 41.7255 470.897 42.0695 470.431C42.3255 469.911 42.5428 469.404 42.7228 468.897C43.0228 468.111 43.3201 467.324 43.6201 466.524C43.8335 465.977 44.0935 465.444 44.3761 464.897C44.5215 464.631 44.6641 464.364 44.8055 464.097ZM27.5055 494.124C26.8841 495.377 26.1908 496.631 25.4068 497.844C24.9375 498.551 24.4321 499.217 23.8975 499.831C23.3348 500.431 22.7655 500.857 22.1868 501.164H22.0935L22.3375 501.484C22.2348 502.031 22.0561 502.591 21.7975 503.177C21.6001 503.591 21.3775 504.004 21.1468 504.404C21.1708 504.471 21.1841 504.564 21.1935 504.657L22.0001 504.337L22.1028 504.644C22.2468 504.257 22.5215 503.951 22.9321 503.724L22.9535 503.577L23.6081 504.004C23.6188 503.884 23.6175 503.777 23.6361 503.657C23.7921 503.017 24.0108 502.377 24.2868 501.737C24.5735 501.071 24.8868 500.417 25.2175 499.751C25.5441 499.031 25.8588 498.351 26.1828 497.644C26.6908 496.471 27.0988 495.297 27.5055 494.124ZM57.6201 536.817C57.5535 536.884 57.4841 536.951 57.4161 537.004C57.4441 537.097 57.4761 537.191 57.4988 537.284C57.5481 537.137 57.5881 536.977 57.6201 536.817ZM439.212 18.4867C439.164 18.5453 439.116 18.5907 439.068 18.6333L439.079 18.6307C442.057 16.508 444.188 12.7387 447.486 11.2667C448.091 11.1693 448.409 11.4027 448.447 11.9587C444.868 18.292 439.809 23.5707 434.199 28.4587L433.233 29.94C432.931 30.5467 432.504 31.0814 431.932 31.5347L431.872 31.4907C431.52 32.0347 431.08 32.444 430.544 32.7094C428.784 36.26 426.835 39.7667 423.669 42.996C423.436 43.568 423.166 44.1454 422.863 44.7267L422.779 44.8533L422.889 44.7867L422.956 44.9173C423.129 44.32 423.522 43.824 424.15 43.44L426.123 42.7907L426.122 43.0067L426.137 42.9987L426.123 42.7907C429.349 40.216 431.377 35.7333 435.304 34.272C435.737 33.8933 436.18 33.544 436.633 33.224C436.811 33.36 436.996 33.4867 437.187 33.6053C437.16 33.912 437.053 34.192 436.864 34.4427C437.045 34.768 437.091 35.1867 437.001 35.7C436.616 36.3413 436.159 36.9547 435.619 37.5333C434.818 38.3853 434.152 39.36 433.247 40.1227C432.869 40.376 432.501 40.624 432.133 40.8707C432.248 41.0747 432.414 41.224 432.65 41.2973C433.012 40.9853 433.383 40.7026 433.763 40.4506C433.935 40.5586 434.119 40.652 434.316 40.7307L432.1 43.6867C431.824 44.2787 431.435 44.836 430.916 45.3506L430.13 46.0654L429.737 46.0094L429.736 46.0786C429.353 47.4386 428.401 48.7307 427.339 50.0094C426.837 50.6187 426.301 51.2094 425.759 51.788L423.371 54.324C422.869 54.8907 422.347 55.4427 421.827 55.992C421.402 56.4747 420.96 56.9453 420.519 57.4133C420.968 57.1827 421.231 57.1734 421.3 57.396C421.373 57.6334 421.359 57.8094 421.255 57.9214L421.171 57.9587C421.069 58.4587 420.812 58.9627 420.376 59.4707C419.932 59.984 419.46 60.312 418.958 60.456L417.808 61.68C417.995 61.7787 418.096 61.944 418.115 62.1747C418.624 61.7333 419.137 61.3013 419.635 60.828C420.055 60.3427 420.468 59.8693 420.867 59.372C421.472 58.54 422.1 57.7347 422.852 56.992C423.42 56.4987 423.994 56.0667 424.583 55.668C428.774 53.0614 431.741 48.4027 435.736 45.4747C436.225 45.2787 436.74 45.072 437.252 44.8654L437.787 44.0333C440.08 43.416 441.783 41.24 443.613 39.4053C443.659 39.308 443.696 39.2267 443.744 39.1227L444.503 38.1813L445.95 37.0773C447.038 36.4707 447.475 37.3894 448.624 36.6347L455.851 29.136C456.197 28.976 456.513 28.888 456.805 28.8574C457.268 28.032 457.949 27.3853 458.839 26.9107L461.233 24.3173C463.285 22.9667 464.678 19.6547 467.163 19.6C465.503 24.272 460.975 27.132 457.775 30.8294C454.184 32.7934 451.753 36.5866 448.647 39.312C445.327 42.0346 442.453 45.1774 439.943 48.6574C439.679 49.128 439.348 49.5734 438.951 49.9907L438.358 50.6214C438.358 50.6214 438.2 51.2787 438.199 51.2893C437.985 51.7787 437.728 52.2654 437.443 52.7547L437.405 52.8214L437.319 53.456L436.528 54.432L436.488 54.4294C436.379 54.62 436.267 54.8174 436.159 55.0067C435.992 55.2894 435.811 55.568 435.623 55.8427C435.624 55.8547 435.631 55.8587 435.632 55.8707C435.644 56.124 435.595 56.3107 435.481 56.4333C435.112 56.852 434.744 57.2693 434.372 57.692L434.23 57.6453L433.999 57.9173C433.473 58.5413 432.922 59.156 432.45 59.788C432.224 60.1307 432.047 60.4854 431.983 60.8014C432.094 60.9534 432.257 60.9893 432.503 60.88C432.628 60.408 432.872 59.9267 433.248 59.4347C433.761 58.9574 434.286 58.6227 434.819 58.432L435.208 58.8146C435.515 58.6133 435.824 58.4267 436.137 58.2627C437.271 57.736 438.375 57.3187 439.511 56.7467C441.221 55.6413 442.732 53.8093 444.352 52.3813C444.114 52.3346 443.876 52.1693 443.644 51.8307C445.936 49.5533 448.005 47.196 449.009 44.46C449.452 44.176 449.859 43.82 450.227 43.392C450.904 42.96 451.494 42.7947 451.994 42.896C451.942 45.8374 448.147 47.4827 446.853 49.9947C446.595 50.3667 446.331 50.7453 446.096 51.084C446.659 50.7573 447.244 50.512 447.864 50.392C448.208 50.812 448.131 51.4307 447.635 52.2587C443.653 57.0907 438.768 61.2027 435.187 66.328C433.14 69.16 429.653 70.876 428.236 74.196L427.708 75.1374C427.217 75.5507 426.759 75.7787 426.325 75.856L425.576 76.6813C425.26 76.844 425.063 76.8707 424.975 76.7747C424.891 76.9733 424.795 77.1747 424.675 77.3827C424.143 78.224 423.522 79.0294 422.896 79.832C422.751 80.044 422.6 80.2614 422.452 80.476C422.919 80.448 422.965 80.764 422.592 81.4267L422.607 81.2747L421.541 82.7934L421.43 82.4267C421.243 82.5614 421.097 82.648 420.971 82.712C420.671 83.168 420.353 83.6173 420.012 84.0613C419.556 84.62 419.08 85.1627 418.594 85.6987L417.115 87.304C415.839 89.0187 413.653 89.8347 412.761 91.924C409.572 97.5294 404.621 102.033 400.289 106.924C398.349 109.509 396.24 111.827 393.548 113.223L393.313 113.125L392.968 114.781C390.151 116.713 387.216 118.54 385.884 121.823C386.053 121.668 386.219 121.515 386.391 121.357C388.364 119.78 390.159 117.459 392.371 116.877C393.052 118.329 391.908 120.16 390.335 122.08L386.686 126.033L362.475 152.347L346.793 169.392C347.008 171.301 344.956 172.472 343.635 173.881L335.211 183.123L331.869 187.259C331.508 188.048 331.731 188.603 331.417 189.375C331.093 189.889 330.719 190.381 330.304 190.855C329.912 191.347 329.6 191.852 329.367 192.369C325.381 194.897 322.484 198.796 319.379 202.431C319.097 203.112 318.716 203.479 318.249 203.576C318.095 204.044 317.848 204.525 317.509 205.016C317.288 205.403 317.044 205.779 316.788 206.151C316.96 206.007 317.199 205.924 317.509 205.909L317.479 205.8C317.94 206.177 317.865 206.713 316.944 207.5C316.767 207.371 316.605 207.221 316.463 207.052C316.456 206.824 316.489 206.635 316.555 206.475C315.952 207.312 315.293 208.131 314.621 208.94C313.921 209.848 313.145 210.703 312.365 211.541L310.924 213.151C310.011 214.191 309.193 215.297 308.34 216.377C307.885 216.897 307.391 217.364 306.859 217.751C304.504 220.564 300.947 222.724 300.061 226.351C300.053 226.817 299.804 227.271 299.317 227.724C298.629 228.257 297.956 228.844 297.321 229.497L296.7 230.151C282.179 246.164 269.912 263.591 256.412 280.231C255.996 281.431 255.161 282.284 254.075 282.924C247.833 292.271 239.484 300.097 232.62 308.991C230.676 314.271 225.691 318.297 222.469 323.191C216.644 332.044 209.153 340.351 203.112 349.324C201.792 351.271 199.937 353.977 198.239 352.431C197.767 352.484 197.344 352.457 196.961 352.351L196.893 352.297C196.685 352.444 196.475 352.577 196.261 352.684C196.117 352.604 195.981 352.511 195.853 352.404L196.472 351.671C196.445 351.564 196.429 351.457 196.425 351.324C196.557 350.764 196.801 350.177 197.132 349.591C197.485 349.017 197.883 348.444 198.304 347.897C198.711 347.351 199.144 346.817 199.581 346.297L200.851 344.737L202.051 343.164C202.595 342.351 203.145 341.524 203.692 340.697C204.081 340.151 204.505 339.631 204.953 339.137L205.489 338.497C205.716 338.084 206 337.697 206.339 337.324L206.421 337.271C206.737 336.831 207.043 336.377 207.327 335.911C207.705 335.297 208.112 334.697 208.543 334.097C209.961 332.204 211.176 330.284 211.953 328.311C212.215 327.697 212.539 327.071 212.887 326.457C213.221 325.857 213.595 325.244 213.967 324.657H213.968L213.579 325.164L212.347 326.697C211.959 327.231 211.596 327.764 211.271 328.311C210.797 329.177 210.316 330.044 209.843 330.897C208.956 332.404 208.084 333.897 207.217 335.377C206.684 336.217 206.131 337.097 205.599 337.937C205.483 338.191 205.333 338.404 205.149 338.604L204.925 338.937C204.709 339.204 204.487 339.471 204.272 339.737C204.048 339.977 203.815 340.231 203.588 340.484C202.883 341.057 202.164 341.444 201.463 341.831C200.797 342.311 200.307 342.924 200.012 343.684C199.875 344.177 199.711 344.671 199.541 345.164C199.344 345.711 199.095 346.244 198.796 346.791C198.152 347.924 197.265 348.977 196.639 350.111C196.332 350.697 195.932 351.244 195.451 351.764C194.632 352.404 193.857 352.777 193.131 352.831C192.839 352.817 192.649 352.684 192.533 352.471C192.305 353.017 192.02 353.577 191.688 354.137C191.263 354.871 190.805 355.604 190.34 356.324C189.692 357.444 189.019 358.551 188.285 359.644C186.98 361.511 185.525 363.137 183.749 364.257C183.525 364.831 183.091 365.404 182.537 365.951C181.988 366.391 181.587 366.417 181.268 366.217C181.265 366.951 181.899 367.177 181.773 368.017C181.597 368.631 181.323 369.244 180.964 369.884C180.203 371.097 179.296 372.231 178.361 373.351C177.924 373.884 177.467 374.404 177.003 374.897C176.564 375.377 176.095 375.817 175.621 376.217C174.968 376.777 174.288 377.257 173.644 377.844C173.66 377.844 173.112 378.457 173.112 378.457C173.112 378.457 172.611 379.111 172.628 379.124L172.513 379.351L173.072 379.751L173.251 379.724C173.04 380.377 172.697 380.804 172.229 380.977C172.081 381.391 171.831 381.791 171.472 382.177L171.356 382.204C171.287 382.364 171.216 382.551 171.149 382.711C170.895 383.231 170.584 383.724 170.221 384.204C169.832 384.671 169.415 385.084 168.975 385.457C168.34 385.991 167.691 386.471 167.037 386.964C166.585 387.324 166.125 387.671 165.675 388.031C165.259 388.511 164.932 389.004 164.689 389.537C164.405 390.071 164.083 390.604 163.728 391.124C163.191 391.911 162.617 392.671 162.028 393.431C161.647 393.937 161.248 394.444 160.847 394.951C160.493 395.391 160.144 395.831 159.793 396.284C159.793 396.311 159.792 396.324 159.792 396.324L161.091 395.004C161.208 395.177 161.332 395.337 161.459 395.484L161.013 396.231L160.423 396.857L160.757 396.884L159.377 398.337L158.737 397.697C158.485 398.044 158.237 398.404 158.003 398.764C157.557 399.577 157.099 400.417 156.643 401.257C156.003 402.391 155.245 403.457 154.433 404.524L155.164 403.857C155.381 403.324 155.723 402.884 156.189 402.551H156.191L157.101 401.004C157.345 401.177 157.576 401.364 157.795 401.564L156.7 402.951L155.597 404.351L155.968 404.404C155.737 405.031 155.345 405.497 154.791 405.804L152.476 408.551C152.285 408.364 152.105 408.151 151.937 407.937L152.572 406.777C152.252 407.137 151.925 407.471 151.584 407.791C151.287 408.044 150.988 408.244 150.691 408.417C150.831 408.884 150.835 409.457 150.695 410.111C150.5 410.857 150.211 411.617 149.848 412.377C150.204 412.337 150.468 412.444 150.64 412.684L150.796 413.164L150.621 413.844L146.448 419.551C145.773 420.911 145.061 421.977 144.212 421.991C143.567 424.071 142.399 425.951 140.552 427.577C139.625 428.337 138.833 428.244 137.94 428.817C135.947 433.657 133.169 438.257 130.221 442.817C127.273 447.377 124.273 451.937 121.664 456.591C119.78 459.951 117.653 463.271 115.719 466.631C115.643 467.311 115.283 467.777 114.676 468.071L108.725 478.791L102.992 489.551C101.624 492.111 100.176 494.631 98.8788 497.191C96.0575 499.711 95.8481 503.311 93.7055 506.097L91.8068 508.951C90.1801 511.991 89.8468 515.364 87.1095 518.057L86.1961 519.484L85.2695 520.937C83.2708 525.724 81.6281 530.524 79.8321 535.284C79.2215 540.297 78.1308 542.764 73.1295 544.884C67.2615 547.377 63.2361 547.044 60.1628 543.391C58.7241 545.631 57.2655 547.284 55.4695 548.351C52.6201 553.284 52.6095 553.297 50.8415 549.924C50.3175 548.911 49.2895 549.551 48.4281 550.377C41.8548 556.724 41.1361 548.697 37.2801 548.391C36.5321 548.337 36.8028 547.124 37.4348 545.937C38.1548 544.604 38.8201 543.484 39.8121 543.951C41.3948 544.671 43.5815 543.564 44.7415 541.097C45.9988 538.417 43.5321 538.417 43.0921 536.737C42.3615 533.671 39.6148 532.324 37.7361 531.871C33.4441 530.831 34.1401 526.297 34.8668 521.044C34.7721 520.724 34.7508 520.351 34.8015 519.937C34.9135 519.471 34.8135 519.231 34.4815 519.297C34.4521 519.351 34.1548 519.991 34.1548 519.991L33.7881 520.604C31.9935 524.684 27.5588 529.497 31.2868 531.937C31.9641 532.377 30.7148 534.697 29.9108 535.484C28.0801 537.284 25.9135 539.511 24.5868 538.057C23.4175 536.764 19.9041 538.564 21.3001 533.857C22.3615 530.311 22.4681 527.471 22.2775 524.924C22.1121 522.404 21.5788 520.137 21.2681 517.697C21.1948 516.351 21.0828 515.017 21.9721 513.204C22.1695 512.751 22.3948 512.297 22.6268 511.857C22.6388 511.297 22.8788 510.804 23.3868 510.377L23.4281 510.364L23.4508 510.324L23.6921 509.297L23.9588 508.951C23.7308 509.044 23.6015 508.991 23.5761 508.791C23.5441 508.524 23.5761 508.311 23.6708 508.137C23.8188 507.724 24.0335 507.351 24.2721 506.964L24.2081 506.804L24.4268 506.457C24.3508 506.337 24.2721 506.231 24.1828 506.124C23.9535 505.871 23.7841 505.551 23.6455 505.191C23.5975 504.977 23.5775 504.751 23.5748 504.511L22.8028 505.711L21.9841 506.151L21.9855 505.831C21.7681 506.297 21.4508 506.684 21.0428 507.031L21.0361 506.844L20.9868 506.804C21.0148 507.071 20.9988 507.364 20.9348 507.711C20.6561 508.431 20.2641 509.097 19.7735 509.684L19.1788 509.897C19.2788 509.991 19.3628 510.124 19.4095 510.311C19.4401 510.871 19.3108 511.497 19.0241 512.191C17.7015 514.151 17.7935 515.844 17.3295 517.631C13.9668 517.844 14.0468 517.271 18.4988 509.777C18.6628 509.244 18.8748 508.711 19.1335 508.177C19.1855 507.537 19.4535 506.937 19.9121 506.404L19.8601 506.337L19.8028 506.431C19.3881 506.871 18.9761 507.151 18.5695 507.284C16.0628 507.097 16.4641 505.337 17.5188 503.337C18.5815 501.351 20.2455 499.071 20.1241 497.657L22.9268 492.791L23.4668 491.911C23.8575 491.337 24.2788 490.804 24.7361 490.324C25.2148 489.871 25.6855 489.537 26.1695 489.297C26.6548 489.111 27.1135 489.004 27.5655 488.924C28.2735 488.804 28.8841 488.871 29.2308 489.431C29.2335 489.564 29.2228 489.697 29.2068 489.831C29.3921 489.471 29.5895 489.097 29.8028 488.737C30.1321 488.124 30.5028 487.497 30.8628 486.897C31.3001 486.084 31.7401 485.257 31.9988 484.444C32.0801 483.951 31.9081 483.791 31.6948 483.671L31.0748 484.644L30.5428 484.311L31.1855 483.297C31.0775 482.844 31.1135 482.324 31.3081 481.684C31.5575 480.991 31.8588 480.324 32.2095 479.657C32.9708 478.244 33.8161 476.911 34.7335 475.604C36.4361 473.271 38.3161 471.271 40.3268 469.684C40.5708 469.537 40.8028 469.431 41.0241 469.364L41.2628 467.217C41.4615 466.631 41.7268 466.057 42.0735 465.471L43.1961 463.791C43.4615 463.444 43.7415 463.151 44.0335 462.924L44.0228 462.937L43.9041 462.097L45.6095 459.191C44.4628 457.164 49.5148 454.164 48.2148 452.164C47.0561 451.951 47.6428 450.551 48.2455 449.151C48.5388 448.564 48.8748 447.991 49.2281 447.431C49.4521 447.044 49.6921 446.671 49.9588 446.297L49.7615 446.417C49.9495 445.751 50.3121 445.204 50.8788 444.817C50.9748 444.764 51.0641 444.724 51.1481 444.697C51.4761 444.284 51.8135 443.871 52.1668 443.484C52.4575 443.204 52.7521 442.951 53.0481 442.751C53.0148 442.657 52.9735 442.577 52.9481 442.471C52.9228 441.991 53.0148 441.444 53.1948 440.857C53.4175 440.271 53.7068 439.697 54.0335 439.137C54.3428 438.591 54.6788 438.057 55.0081 437.524C55.4455 436.751 55.8308 435.964 56.1548 435.164C56.3535 434.657 56.6001 434.151 56.8668 433.644C57.0788 433.177 57.2708 432.711 57.4121 432.257L56.8615 433.111L57.0241 432.177C56.8295 432.151 56.6508 432.097 56.4935 431.991C56.2308 431.644 56.1508 431.137 56.2495 430.497L56.8441 429.471L57.3228 429.351C57.3348 429.217 57.3455 429.071 57.3708 428.924C57.5201 428.364 57.7428 427.791 58.0268 427.204C58.4828 426.324 58.9975 425.471 59.4961 424.591C59.5868 424.417 59.6801 424.231 59.7721 424.044C59.4681 424.471 59.1508 424.884 58.8095 425.271C58.3321 425.764 57.8375 426.164 57.3321 426.457C57.1841 426.524 57.0601 426.537 56.9495 426.524L56.8295 427.404L56.0055 428.004L55.4001 427.471L56.4561 426.017L58.2761 422.977C58.5055 422.351 58.8268 421.737 59.2375 421.124L59.9001 420.257L60.6668 419.591C61.1401 419.511 61.4761 419.657 61.6748 420.017C61.6588 420.191 61.6215 420.364 61.5761 420.537C61.8348 420.111 62.1068 419.671 62.3935 419.244C62.7735 418.644 63.1801 418.071 63.5921 417.497C64.1281 416.724 64.6508 415.951 65.1428 415.151C64.9628 415.391 64.7775 415.631 64.5815 415.871C64.0601 416.431 63.5135 416.884 62.9495 417.244C62.3895 417.391 62.1201 417.177 62.1881 416.524L64.0415 413.497C64.3068 412.831 64.6655 412.177 65.1281 411.551L65.8735 410.671L66.7121 410.164C67.1535 410.231 67.4068 410.524 67.4775 411.044C67.3801 411.271 67.2655 411.511 67.1441 411.737C67.7361 410.937 68.3908 410.257 69.1028 409.697L69.0868 409.604C69.2681 409.044 69.5255 408.484 69.8495 407.924C70.1855 407.364 70.5495 406.817 70.9321 406.284C71.3068 405.711 71.7001 405.177 72.1015 404.617C72.5028 404.044 72.9095 403.484 73.3388 402.937C73.7721 402.351 74.2215 401.804 74.6868 401.244L74.9841 400.911C75.0095 400.871 75.0255 400.817 75.0548 400.791C75.3041 400.311 75.5561 399.817 75.8148 399.324L77.9548 396.537C78.1828 395.844 78.5641 395.164 79.0788 394.511C79.8175 393.564 80.4988 392.497 81.4961 392.044L81.4935 392.084C81.8975 391.884 82.2295 391.844 82.5095 391.897C82.6561 391.697 82.8721 391.551 83.1695 391.497L83.4401 391.111C84.5401 390.711 85.3161 389.244 86.3281 388.537C86.8135 388.444 87.1748 388.551 87.4228 388.844C87.6468 389.457 87.6161 390.244 87.4775 391.111C87.3241 391.991 86.9375 392.937 86.4801 393.884C86.1961 394.324 85.8948 394.631 85.5801 394.791C85.5615 395.137 85.4948 395.497 85.3721 395.897C85.1975 396.311 85.0068 396.711 84.8068 397.124L84.9055 397.071C85.0175 397.137 85.1241 397.204 85.2295 397.271L85.2615 397.244C85.9095 396.884 86.5601 396.631 87.2201 396.124C87.5961 395.724 87.9468 395.311 88.2495 394.844C88.3041 394.737 88.3561 394.657 88.4108 394.564C88.1948 394.617 88.0068 394.591 87.8748 394.364C87.6535 394.311 87.4601 394.217 87.2961 394.084C87.2975 393.071 87.9388 392.177 88.8681 391.337C88.9788 391.271 89.0855 391.231 89.1908 391.177C89.1201 391.164 89.0628 391.164 89.0628 391.164C89.3975 390.511 89.8428 390.031 90.3988 389.697C90.9481 389.511 91.1855 389.737 91.1615 390.297L90.6068 391.057C90.6308 391.084 90.6615 391.097 90.6828 391.124L91.0895 390.591L91.2415 390.364L91.1628 390.297L91.4868 389.364L91.9268 389.084C91.6588 389.057 91.4455 388.951 91.3055 388.711C91.2735 388.604 91.2588 388.471 91.2415 388.351L90.8948 388.631C90.4601 388.671 90.1228 388.551 89.8775 388.297C89.7161 387.937 89.7001 387.484 89.8468 386.937C90.2068 386.351 90.6495 385.911 91.1628 385.604C91.5295 385.484 91.7588 385.551 91.8708 385.777L92.1481 385.337C92.6708 384.804 93.1921 384.457 93.7081 384.364C93.9241 384.391 94.1028 384.457 94.2428 384.551C94.3055 384.391 94.3681 384.217 94.4335 384.044L94.5321 383.577L94.3548 383.364C94.4521 383.164 94.5695 382.977 94.6975 382.791C94.7655 382.457 94.8348 382.124 94.9281 381.791C95.1455 381.217 95.4241 380.644 95.7588 380.084C96.2855 379.231 96.8788 378.404 97.5028 377.617C97.9028 377.097 98.3308 376.591 98.7655 376.111C99.1828 375.657 99.6255 375.244 100.071 374.857L100.235 374.711C100.149 374.604 100.123 374.417 100.157 374.151C100.353 373.671 100.625 373.324 100.967 373.071C100.921 372.964 100.916 372.884 100.961 372.831C101.448 370.964 102.66 369.391 104.185 367.937C104.624 367.577 105.06 367.297 105.489 367.097H105.487C105.803 366.417 106.26 365.911 106.857 365.577C107.412 365.417 107.692 365.604 107.709 366.137L108.211 365.511C109.016 364.484 109.825 363.457 110.604 362.417C110.977 361.857 111.341 361.324 111.715 360.777C112.203 359.924 112.699 359.057 113.196 358.191C113.883 357.004 114.679 355.857 115.531 354.737C115.94 354.177 116.371 353.631 116.813 353.097C117.456 352.337 118.1 351.564 118.741 350.791C119.133 350.297 119.548 349.804 119.955 349.324L121.077 347.871C121.567 347.124 121.992 346.351 122.373 345.577C122.641 345.057 122.953 344.537 123.292 344.017C123.637 343.497 124.011 342.991 124.396 342.497C124.773 341.991 125.169 341.497 125.568 341.004C125.964 340.511 126.356 340.017 126.751 339.524C127.133 339.017 127.511 338.511 127.895 337.991C128.24 337.444 128.576 336.911 128.927 336.364C129.405 335.484 129.876 334.604 130.408 333.737C131.396 332.164 132.548 330.697 133.712 329.231C134.183 328.604 134.673 328.004 135.169 327.391C135.653 326.764 136.157 326.164 136.664 325.564C139.641 322.204 141.725 318.524 143.804 314.871C144.103 314.351 144.435 313.857 144.781 313.364C144.648 313.324 144.524 313.271 144.421 313.177C144.253 312.764 144.231 312.257 144.368 311.644C144.719 310.671 145.293 309.724 145.972 308.777C146.416 308.151 146.895 307.551 147.384 306.951C147.867 306.337 148.373 305.737 148.892 305.151C149.955 303.964 151.045 302.831 152.3 302.137C152.74 301.991 153.011 302.044 153.111 302.297C153.181 302.471 153.204 302.617 153.183 302.711C153.223 302.631 153.257 302.564 153.299 302.471C153.62 301.831 153.997 301.191 154.393 300.551C154.785 299.951 155.236 299.351 155.707 298.791C156.173 298.257 156.677 297.764 157.192 297.297C157.787 296.791 158.381 296.257 158.947 295.671C158.779 295.591 158.611 295.511 158.433 295.444L157.292 296.831L157.203 296.471L156.387 296.684L156.38 295.884C156.683 295.364 157.024 295.044 157.392 294.884C157.72 293.977 158.448 293.111 158.961 292.231C159.391 291.591 159.897 291.017 160.464 290.497C161.033 290.017 161.612 289.577 162.203 289.217L163.611 287.937C163.759 288.097 163.915 288.257 164.079 288.404C163.303 290.324 160.333 291.871 160.357 293.937C160.695 293.511 161.04 293.084 161.404 292.671C164.219 289.924 166.317 286.831 168.081 283.577C168.504 282.911 168.984 282.271 169.504 281.657C170.307 280.764 171.145 279.911 171.965 279.031L173.567 277.204C177.507 272.857 180.995 268.311 183.708 263.377C184.055 262.804 184.441 262.244 184.843 261.684L184.044 262.577L183.949 262.191L183.12 262.297L183.248 261.377C184.164 260.017 185.3 258.817 186.369 257.564C186.817 257.031 187.273 256.711 187.729 256.564C187.699 256.457 187.704 256.377 187.755 256.311C188.269 255.351 188.927 254.497 189.844 253.844C190.429 253.631 190.808 253.724 190.948 254.164L188.793 257.151L188.657 256.804L187.016 259.084C187.657 258.404 188.327 257.791 189.017 257.217C194.68 251.337 200.105 245.311 204.516 238.524C210.553 230.884 217.8 224.057 223.097 215.924C228.465 209.28 234.739 203.28 239.611 196.284L239.793 196.007C238.789 196.631 237.747 197.64 236.773 197.957C236.025 196.285 238.816 194.947 239.441 193.404C241.472 191.031 242.911 187.376 246.107 187.512C245.301 188.989 245.173 190.532 243.521 191.929C246.932 190.441 249.889 187.652 252.744 184.411L273.543 161.088C274.608 158.289 277.007 156.163 279.129 153.896L282.509 149.78C283.701 147.723 285.449 146.08 287.143 144.401C288.467 143.171 289.756 141.909 291.02 140.623L293.403 137.815L296.936 134.144C298.191 132.672 299.416 131.175 300.609 129.647C301.477 128.456 302.495 127.381 303.493 126.289L312.745 116.185L322.243 105.829C325.18 102.799 327.793 99.428 330.988 96.664C331.141 96.6947 331.281 96.7213 331.429 96.7506L351.821 74.1907L353.271 73.0734L352.904 73.0014L356.876 69.1693L357.809 67.684L361.323 64.1627C362.177 63.1067 363.01 62.0334 363.83 60.9547C364.558 59.9507 365.359 59.044 366.389 58.436C371.8 54.9333 375.92 49.6414 380.439 44.8987C382.981 42.232 385.289 39.1933 388.425 37.4747C390.629 33.8333 394.563 31.2627 396.669 27.5627C400.739 21.9494 406.049 18.5587 411.047 14.5987C411.205 14.0227 411.537 13.468 412.069 12.9374C412.877 12.2147 413.708 11.5454 414.53 10.84C415.376 10.0654 416.237 9.34002 417.144 8.71868L417.177 8.7C417.151 8.66533 417.136 8.61735 417.139 8.55202C417.152 8.27735 417.229 8.06401 417.371 7.91068L418.564 6.47467C418.789 5.91467 419.129 5.37335 419.599 4.85469L420.989 3.34531L423.097 1.09069C423.591 0.584024 424.107 0.213334 424.65 3.9814e-07L424.592 0.332032C424.648 2.0147 421.297 4.75867 422.876 5.96667L422.744 6.83333C422.093 8.05067 421.244 8.96667 420.168 9.53333C420.441 9.51867 420.689 9.54798 420.913 9.61732L422.65 8.01999L423.903 6.6C424.035 6.76667 424.177 6.91869 424.333 7.05736L423.109 8.48932H423.108C422.792 8.94666 422.487 9.40537 422.194 9.86803L421.727 10.3453L421.771 10.412C421.785 10.5906 421.783 10.7813 421.775 10.9747C423.351 10.1187 425.135 8.82533 425.48 10.628C425.249 11.2973 424.899 11.976 424.423 12.6507C423.112 14.196 421.803 15.76 420.284 17.1307C421.521 16.1347 422.48 14.8254 423.611 13.7014C425.731 11.6107 427.375 9.04533 429.763 7.22799C430.448 6.73199 431.121 6.39468 431.781 6.18268L432.431 6.48398C432.549 6.99998 432.471 7.61465 432.208 8.31999C431.951 8.94132 431.631 9.56131 431.269 10.1813C431.631 10.1893 431.93 10.288 432.16 10.4854C432.36 10.7854 432.444 11.1733 432.444 11.6253C432.359 12.336 432.125 13.0947 431.732 13.9C431.313 14.668 430.784 15.4147 430.215 16.1467C429.845 16.6147 429.456 17.076 429.06 17.5307L428.472 18.212C428.012 19.424 426.911 20.7333 426.433 21.948C429.019 19.9453 431.399 17.2254 434.196 16.0094C441.095 13.472 446.01 5.8187 452.122 1.2707C452.312 1.42537 452.508 1.57335 452.708 1.71602C451.905 4.18002 449.063 5.76667 447.892 8.06667C446.173 10.9333 443.484 13.2787 441.515 16.008C440.849 16.9307 440.103 17.7907 439.212 18.4867Z" fill="#B85E39"/>
<path d="M460.839 507.497C460.767 507.191 460.736 506.897 460.385 506.577C460.289 506.857 460.604 507.177 460.839 507.497ZM420.773 483.444L419.597 482.124L419.619 482.191C419.78 482.377 419.929 482.577 420.06 482.791L420.773 483.444ZM423.215 476.417L422.835 475.831C422.437 475.244 422.089 474.657 421.796 474.057C421.556 474.217 421.221 474.244 420.765 474.084C420.679 474.044 420.597 474.004 420.513 473.951C420.717 474.137 420.924 474.324 421.136 474.511C421.616 474.871 422.075 475.271 422.527 475.697C422.763 475.937 422.992 476.177 423.215 476.417ZM417.624 479.724C417.473 479.511 417.323 479.297 417.168 479.071C416.492 478.031 416.12 476.951 415.215 475.951C414.831 475.524 414.437 475.097 414.028 474.697L413.848 474.564C414.417 475.217 414.931 475.897 415.381 476.604C415.888 477.457 416.228 478.284 416.489 479.097L416.72 479.777L416.961 479.631L417.624 479.724ZM276.536 273.004L276.455 272.937L276.452 272.991L276.536 273.004ZM205.108 279.084C202.72 276.524 200.987 273.057 197.943 271.391C198.671 272.604 199.065 273.711 198.561 274.471C198.548 274.537 198.537 274.591 198.524 274.644C198.809 274.657 199.083 274.604 199.343 274.444C201.044 275.511 202.411 277.031 203.64 278.764C203.692 278.857 203.741 278.951 203.793 279.044C204.128 278.857 204.581 278.897 205.108 279.084ZM183.013 255.924C182.868 255.697 182.671 255.537 182.42 255.417L183.013 255.924ZM210.419 196.077C208.151 194.243 206.72 190.971 204.261 189.461C205.943 192.088 207.943 194.356 210.419 196.077ZM158.612 140.459L157.815 139.22C157.728 139.211 157.639 139.189 157.549 139.16L157.979 139.695C158.192 139.952 158.401 140.205 158.612 140.459ZM93.5694 64.2947L93.0627 63.5494C92.6894 63.0067 92.32 62.472 91.9467 61.928C91.648 61.4987 91.3707 61.0614 91.0987 60.6214L89.3587 58.5813C88.7907 58.1147 88.304 57.5307 87.8853 56.8453L87.5427 56.1667C87.5027 56.224 87.444 56.2494 87.3454 56.2094C87.096 56.1081 86.9067 55.9627 86.7787 55.7694L86.6934 56.0601C87.0427 56.4787 87.3867 56.8894 87.7387 57.3107C88.3454 57.9347 88.9614 58.568 89.568 59.192C90.416 60.068 91.1814 61.0374 91.9094 62.044C92.276 62.5254 92.6254 63.0253 92.9707 63.52L93.5694 64.2947ZM86.0574 55.2467L85.6627 54.6961L84.72 53.28L84.34 52.516L83.7894 51.8574L82.844 50.1241C82.8054 50.3481 82.7334 50.548 82.6267 50.7173C82.0094 50.8373 81.376 50.3534 80.7814 49.6067C80.8254 49.6747 80.612 49.0427 80.612 49.0427C80.612 49.0427 80.4427 49.4481 80.4574 49.4681C80.86 49.7467 81.188 50.108 81.4707 50.5813C81.8347 50.992 82.2014 51.3654 82.5867 51.7054C83.1774 52.2507 83.7627 52.792 84.3547 53.3387C84.7614 53.7214 85.1454 54.1427 85.52 54.5867C85.7027 54.8107 85.88 55.0294 86.0574 55.2467ZM66.9934 28.8027C66.22 27.7494 65.5014 26.6414 64.8467 25.4667C64.472 24.7707 64.16 24.0694 63.892 23.356C63.664 22.632 63.576 21.9707 63.5974 21.3547L63.6427 21.2747L63.2507 21.3467C62.836 21.0307 62.4454 20.644 62.0787 20.184C61.8214 19.8413 61.5814 19.4827 61.3494 19.1173C61.2774 19.108 61.1974 19.0813 61.1147 19.0507L60.9854 19.8601L60.664 19.812C60.928 20.1 61.06 20.4627 61.0507 20.9041L61.156 20.9787L60.4707 21.3494C60.5667 21.4094 60.6614 21.4561 60.7587 21.5241C61.2254 21.9267 61.66 22.3787 62.08 22.8867C62.508 23.4107 62.912 23.952 63.3174 24.5107C63.7654 25.088 64.1947 25.6413 64.64 26.212C65.3947 27.136 66.1947 27.9707 66.9934 28.8027ZM14.9814 34.1307C14.952 34.0307 14.936 33.9334 14.9147 33.836C14.816 33.8054 14.7187 33.7801 14.6174 33.7401C14.736 33.8787 14.8574 34.0094 14.9814 34.1307ZM461.204 508.164C461.148 508.111 461.107 508.057 461.067 508.004L461.069 508.017C462.968 511.151 466.572 513.551 467.799 516.951C467.851 517.551 467.596 517.857 467.039 517.857C460.983 513.817 456.088 508.377 451.624 502.431L450.219 501.351C449.636 501.004 449.133 500.551 448.723 499.937L448.771 499.884C448.255 499.497 447.879 499.031 447.653 498.471C444.241 496.457 440.887 494.257 437.899 490.857C437.344 490.591 436.789 490.271 436.231 489.937L436.111 489.831L436.171 489.951L436.035 490.004C436.617 490.231 437.083 490.657 437.421 491.311L437.924 493.324L437.708 493.311L437.715 493.324H437.924C440.255 496.724 444.576 499.084 445.745 503.097C446.092 503.564 446.408 504.031 446.693 504.511C446.545 504.671 446.405 504.844 446.272 505.031C445.968 504.977 445.697 504.857 445.461 504.644C445.124 504.804 444.703 504.817 444.197 504.697C443.585 504.257 443.008 503.764 442.469 503.177C441.679 502.311 440.756 501.577 440.061 500.617C439.837 500.231 439.616 499.844 439.397 499.457C439.185 499.564 439.024 499.711 438.935 499.937C439.219 500.324 439.473 500.711 439.697 501.111C439.576 501.284 439.469 501.457 439.376 501.644L436.591 499.217C436.02 498.897 435.495 498.471 435.017 497.911L434.363 497.084L434.447 496.697L434.379 496.684C433.051 496.204 431.831 495.164 430.635 494.004C430.064 493.457 429.515 492.884 428.977 492.297L426.625 489.737C426.096 489.191 425.585 488.631 425.076 488.071C424.627 487.604 424.189 487.137 423.755 486.657C423.953 487.124 423.943 487.391 423.716 487.444C423.472 487.497 423.299 487.471 423.195 487.351L423.164 487.271C422.672 487.137 422.189 486.831 421.713 486.364C421.235 485.884 420.943 485.391 420.836 484.884L419.7 483.644C419.588 483.817 419.416 483.911 419.185 483.911C419.587 484.444 419.98 484.991 420.416 485.524C420.868 485.977 421.309 486.431 421.776 486.857C422.561 487.524 423.317 488.217 424.004 489.017C424.453 489.617 424.841 490.217 425.196 490.844C427.485 495.217 431.913 498.511 434.541 502.711C434.701 503.217 434.869 503.751 435.037 504.271L435.829 504.871C436.276 507.191 438.321 509.057 440.017 511.017C440.111 511.071 440.189 511.111 440.289 511.164L441.173 511.991L442.168 513.511C442.695 514.644 441.745 515.017 442.413 516.217L449.361 523.977C449.493 524.324 449.559 524.657 449.568 524.937C450.357 525.471 450.952 526.191 451.36 527.111L453.769 529.697C454.967 531.831 458.165 533.471 458.033 535.951C453.503 533.951 450.981 529.231 447.529 525.764C445.836 522.044 442.232 519.337 439.741 516.044C437.269 512.524 434.347 509.431 431.059 506.671C430.608 506.377 430.189 506.017 429.801 505.591L429.216 504.951C429.216 504.951 428.572 504.751 428.561 504.737C428.089 504.497 427.623 504.204 427.155 503.884L427.092 503.844L426.464 503.711L425.549 502.844L425.556 502.804C425.372 502.684 425.184 502.564 425.003 502.431C424.733 502.244 424.469 502.044 424.208 501.844C424.197 501.844 424.192 501.844 424.18 501.844C423.927 501.844 423.743 501.777 423.631 501.657C423.24 501.257 422.849 500.857 422.456 500.457L422.513 500.311L422.259 500.071C421.675 499.497 421.103 498.897 420.507 498.377C420.181 498.137 419.841 497.924 419.531 497.844C419.372 497.937 419.324 498.097 419.415 498.351C419.876 498.511 420.337 498.791 420.801 499.204C421.239 499.751 421.533 500.297 421.685 500.844L421.276 501.204C421.453 501.524 421.617 501.844 421.757 502.177C422.2 503.351 422.535 504.471 423.021 505.657C424 507.444 425.716 509.084 427.021 510.804C427.085 510.564 427.268 510.337 427.623 510.137C429.727 512.591 431.925 514.831 434.581 516.031C434.831 516.484 435.157 516.924 435.557 517.324C435.939 518.031 436.06 518.631 435.923 519.111C432.992 518.844 431.629 514.937 429.219 513.471C428.867 513.191 428.508 512.897 428.188 512.631C428.473 513.217 428.675 513.817 428.748 514.444C428.304 514.764 427.693 514.644 426.903 514.084C422.375 509.764 418.632 504.591 413.783 500.631C411.108 498.377 409.652 494.777 406.445 493.111L405.545 492.511C405.168 491.991 404.975 491.524 404.929 491.084L404.161 490.271C404.023 489.951 404.011 489.751 404.113 489.671C403.921 489.564 403.727 489.457 403.528 489.324C402.728 488.724 401.972 488.044 401.217 487.364C401.016 487.204 400.811 487.031 400.608 486.871C400.601 487.337 400.281 487.364 399.648 486.937L399.8 486.964L398.364 485.791L398.737 485.697C398.617 485.511 398.541 485.351 398.488 485.217C398.055 484.884 397.631 484.537 397.213 484.164C396.689 483.671 396.184 483.151 395.685 482.631L394.193 481.031C392.579 479.631 391.927 477.377 389.909 476.337C384.551 472.737 380.443 467.431 375.891 462.724C373.461 460.591 371.308 458.297 370.123 455.511L370.239 455.284L368.615 454.804C366.908 451.831 365.317 448.751 362.149 447.164C362.289 447.337 362.429 447.524 362.573 447.697C363.991 449.804 366.165 451.777 366.571 454.031C365.068 454.604 363.332 453.311 361.54 451.577L357.881 447.617L333.593 421.231L317.937 404.044C316.015 404.084 315.031 401.924 313.745 400.471L305.288 391.177L301.463 387.457C300.708 387.017 300.135 387.177 299.396 386.791C298.913 386.417 298.459 385.991 298.025 385.537C297.572 385.097 297.099 384.724 296.605 384.444C294.463 380.204 290.853 376.924 287.524 373.457C286.871 373.111 286.541 372.697 286.489 372.217C286.039 372.017 285.581 371.724 285.123 371.324C284.76 371.071 284.407 370.791 284.061 370.497C284.188 370.684 284.247 370.924 284.231 371.244L284.343 371.217C283.921 371.644 283.393 371.511 282.696 370.511C282.844 370.351 283.009 370.204 283.191 370.084C283.42 370.097 283.607 370.151 283.76 370.231C282.979 369.551 282.235 368.791 281.495 368.044C280.66 367.244 279.887 366.377 279.129 365.511L277.677 363.897C276.729 362.871 275.708 361.937 274.712 360.964C274.24 360.457 273.833 359.911 273.501 359.337C270.927 356.684 269.139 352.911 265.605 351.631C265.145 351.564 264.72 351.257 264.331 350.724C263.861 349.977 263.357 349.231 262.769 348.524L262.183 347.831C247.764 331.537 231.835 317.137 216.96 301.391C215.812 300.817 215.068 299.871 214.567 298.697C206.111 291.097 199.349 281.737 191.531 273.457C186.576 270.684 183.245 265.124 178.887 261.097C170.985 253.777 163.841 244.964 155.987 237.244C154.272 235.564 151.896 233.217 153.721 231.817C153.744 231.337 153.847 230.937 154.019 230.577L154.083 230.511C153.969 230.284 153.872 230.044 153.796 229.817C153.905 229.684 154.024 229.564 154.151 229.457L154.771 230.217C154.881 230.204 154.999 230.217 155.125 230.231C155.661 230.471 156.196 230.817 156.728 231.257C157.243 231.711 157.735 232.217 158.211 232.724C158.681 233.231 159.136 233.764 159.581 234.297L160.915 235.844L162.281 237.324C162.996 238.017 163.72 238.711 164.44 239.404C164.916 239.884 165.36 240.404 165.783 240.937L166.325 241.591C166.692 241.897 167.029 242.244 167.34 242.657L167.387 242.737C167.776 243.137 168.175 243.511 168.591 243.871C169.148 244.351 169.675 244.857 170.205 245.391C171.871 247.124 173.584 248.657 175.423 249.764C175.995 250.124 176.567 250.551 177.128 251.004C177.671 251.444 178.211 251.911 178.744 252.377L178.745 252.391L178.299 251.911L176.973 250.431C176.504 249.951 176.025 249.497 175.527 249.084C174.752 248.471 173.963 247.844 173.188 247.231C171.825 246.097 170.483 244.977 169.149 243.857C168.397 243.177 167.615 242.484 166.864 241.804C166.636 241.644 166.439 241.457 166.273 241.231L165.984 240.951C165.756 240.684 165.523 240.417 165.296 240.151C165.093 239.884 164.881 239.604 164.676 239.337C164.225 238.537 163.956 237.751 163.691 236.977C163.331 236.231 162.808 235.631 162.105 235.204C161.636 234.977 161.18 234.724 160.711 234.457C160.204 234.164 159.716 233.817 159.224 233.417C158.209 232.577 157.317 231.497 156.297 230.671C155.759 230.257 155.283 229.751 154.856 229.191C154.359 228.257 154.123 227.417 154.187 226.684C154.257 226.404 154.423 226.244 154.656 226.164C154.143 225.831 153.637 225.444 153.137 225.017C152.479 224.471 151.839 223.871 151.205 223.257C150.221 222.391 149.247 221.511 148.293 220.564C146.689 218.897 145.345 217.124 144.563 215.137C144.029 214.804 143.548 214.257 143.097 213.604C142.767 212.964 142.817 212.564 143.075 212.297C142.343 212.143 142.007 212.724 141.193 212.431C140.62 212.131 140.056 211.735 139.497 211.252C138.427 210.252 137.464 209.124 136.529 207.973C136.077 207.437 135.659 206.867 135.259 206.3C134.88 205.763 134.536 205.201 134.224 204.644C133.811 203.876 133.463 203.096 133.016 202.333C133.005 202.347 132.509 201.671 132.509 201.671C132.509 201.671 131.961 201.033 131.952 201.049L131.751 200.887L131.236 201.349V201.535C130.625 201.181 130.279 200.752 130.189 200.248C129.815 200.013 129.471 199.677 129.161 199.239L129.16 199.117C129.005 199.013 128.845 198.904 128.696 198.803C128.235 198.437 127.804 198.021 127.397 197.555C127.02 197.069 126.692 196.565 126.408 196.049C126.008 195.305 125.661 194.557 125.299 193.804C125.043 193.281 124.781 192.749 124.524 192.227C124.132 191.711 123.711 191.28 123.232 190.923C122.751 190.523 122.296 190.088 121.851 189.624C121.185 188.911 120.56 188.159 119.941 187.399C119.512 186.9 119.103 186.385 118.696 185.871C118.331 185.415 117.968 184.965 117.604 184.513C117.58 184.505 117.563 184.501 117.563 184.501L118.583 186.097C118.393 186.175 118.208 186.259 118.029 186.348L117.4 185.732L116.897 184.996L116.807 185.323L115.664 183.611L116.439 183.135C116.144 182.8 115.848 182.471 115.54 182.153C114.832 181.519 114.103 180.865 113.377 180.216C112.396 179.313 111.497 178.308 110.627 177.253L111.129 178.135L111.131 178.133C111.607 178.476 111.964 178.917 112.2 179.46L113.527 180.728C113.307 180.928 113.072 181.112 112.824 181.277L111.695 179.865L110.543 178.44L110.407 178.791C109.841 178.413 109.467 177.915 109.284 177.295L107.061 174.349C107.297 174.209 107.543 174.084 107.799 173.973L108.796 174.875C108.52 174.476 108.256 174.072 108.015 173.66C107.835 173.308 107.699 172.965 107.593 172.632C107.095 172.657 106.536 172.517 105.923 172.207C105.239 171.823 104.561 171.34 103.895 170.784C103.853 171.145 103.695 171.381 103.412 171.487L102.909 171.519L102.284 171.169L97.6254 165.551C96.44 164.527 95.56 163.544 95.7507 162.708C93.8493 161.521 92.2627 159.869 91.0934 157.624C90.564 156.508 90.8573 155.739 90.516 154.697C86.2867 151.355 82.464 147.287 78.7294 143.064C74.9934 138.843 71.4294 134.367 67.5747 130.344C64.7867 127.432 62.1334 124.275 59.4694 121.16C58.8294 120.845 58.476 120.325 58.3734 119.628L49.7 109.996L41.14 100.167C39.136 97.7894 37.0827 95.476 35.1174 93.036C33.6934 89.1854 30.3094 87.3881 28.376 84.0627L26.3027 80.9547C23.972 78.0147 20.9414 75.9067 19.4147 71.9507L18.4067 70.356L17.38 68.7334C13.5067 64.52 9.8107 59.9921 6.0187 55.5761C1.4667 52.1667 -0.339964 49.2974 0.0520363 43.2267C0.520036 36.1067 2.8787 32.8094 7.74937 32.3627C6.3707 29.7454 5.7787 27.152 5.79603 24.844C2.9987 18.876 3.00936 18.8907 6.94269 19.6947C8.10936 19.9294 8.12403 18.6067 7.88403 17.3067C6.0707 7.4494 13.4814 12.3547 15.9214 9.31201C16.3974 8.73468 17.2747 9.73336 17.9027 10.9947C18.62 12.4307 19.1814 13.684 18.232 14.228C16.7187 15.088 16.432 17.652 17.888 20.2307C19.46 23.0107 20.8027 20.8627 22.4627 21.5054C25.5427 22.6267 28.144 21.016 29.532 19.6867C32.704 16.6534 36.2467 19.668 40.316 22.9467C40.6334 23.0267 40.96 23.1974 41.2867 23.4494C41.6227 23.7814 41.8747 23.8147 41.996 23.4987C41.9587 23.4441 41.5774 22.8707 41.5774 22.8707L41.252 22.2494C38.764 18.6307 36.9294 12.548 32.98 14.2334C32.236 14.5534 31.068 12.1947 30.8854 11.08C30.4667 8.54004 29.9294 5.53337 31.8907 5.30537C33.62 5.09204 34.2587 1.34138 37.2014 5.01872C39.4227 7.78138 41.5587 9.39202 43.736 10.5173C45.9467 11.632 48.1227 12.2947 50.3147 13.1974C51.4694 13.776 52.628 14.304 53.64 15.8774C53.9094 16.2534 54.1614 16.6493 54.404 17.048C54.8574 17.3147 55.1347 17.7414 55.2094 18.3574L55.1987 18.4L55.2187 18.436L55.9374 19.1107L56.0774 19.4894C56.1187 19.2547 56.2294 19.1694 56.4107 19.2414C56.6414 19.3334 56.8 19.456 56.888 19.612C57.152 19.9227 57.388 20.2641 57.5907 20.6294L57.764 20.6467L57.9574 20.9827C58.096 20.9694 58.232 20.9534 58.364 20.9227C58.7 20.84 59.052 20.8334 59.436 20.8734C59.6414 20.9254 59.8467 21.0067 60.056 21.1067L59.404 19.9427L59.428 19.0681L59.7094 19.208C59.42 18.8267 59.2267 18.396 59.18 17.9L59.336 17.9787L59.3894 17.952C59.164 17.86 58.9307 17.7134 58.688 17.5094C58.24 16.9507 57.9147 16.3294 57.696 15.6574L57.8374 15.0667C57.7067 15.108 57.56 15.12 57.38 15.0747C56.9054 14.8467 56.4614 14.4547 56.0494 13.9041C55.1627 11.9294 53.7254 11.228 52.5014 10.016C54.1627 7.20138 54.596 7.54136 58.3054 14.5614C58.652 14.936 58.972 15.3481 59.2654 15.7987C59.756 16.1267 60.092 16.6094 60.288 17.2307L60.36 17.2134L60.3254 17.1294C60.1827 16.5854 60.1787 16.1214 60.2894 15.7254C61.7987 13.724 62.928 14.836 64.0747 16.5494C65.236 18.26 66.348 20.596 67.604 21.072L70.328 25.4107L70.8067 26.2241C71.1067 26.7921 71.3454 27.3627 71.5254 27.9467C71.6747 28.536 71.7267 29.0814 71.704 29.5867C71.6507 30.076 71.5414 30.5134 71.4027 30.9321C71.1827 31.5867 70.8507 32.0894 70.2014 32.1694C70.0854 32.1214 69.972 32.0601 69.8587 31.9934C70.1 32.2974 70.3347 32.6107 70.5627 32.9387C70.9547 33.46 71.3387 34.0227 71.708 34.5681C72.2214 35.2587 72.752 35.9587 73.356 36.4987C73.7454 36.7547 73.9694 36.6681 74.1694 36.5267L73.5894 35.6134L74.124 35.28L74.72 36.2227C75.164 36.2987 75.6094 36.5294 76.0814 36.9401C76.5694 37.4161 77.0174 37.9294 77.452 38.4881C78.3414 39.6814 79.14 40.924 79.8747 42.2173C81.1307 44.5853 82.264 46.9227 82.8467 49.2854C82.884 49.556 82.884 49.8 82.8574 50.0214L84.68 50.9813C85.128 51.3613 85.544 51.8027 85.9254 52.3134L86.9747 53.9C87.1854 54.2614 87.3293 54.6107 87.416 54.952V54.9414L88.204 55.1173L90.132 57.6507C92.3707 57.2933 93.2787 62.816 95.5694 62.2787C96.2014 61.296 97.2587 62.2707 98.3213 63.2614C98.74 63.7107 99.1347 64.1947 99.516 64.692C99.7853 65.0174 100.043 65.3547 100.277 65.7107L100.248 65.4974C100.784 65.8747 101.143 66.3747 101.295 67.0147C101.305 67.1187 101.305 67.2121 101.299 67.2961C101.56 67.7267 101.808 68.1627 102.032 68.6067C102.187 68.9614 102.301 69.3067 102.384 69.6427C102.479 69.6414 102.568 69.628 102.668 69.636C103.117 69.7627 103.579 70.0134 104.045 70.3574C104.485 70.7441 104.917 71.1801 105.332 71.6427C105.725 72.0841 106.112 72.5507 106.492 73.008C107.068 73.636 107.668 74.2214 108.289 74.7467C108.695 75.0774 109.085 75.4533 109.464 75.8453C109.823 76.176 110.188 76.4853 110.564 76.748L109.959 75.9947L110.761 76.4107C110.853 76.24 110.969 76.0934 111.115 75.9761C111.527 75.8347 112.017 75.904 112.583 76.1787L113.331 77.0214L113.279 77.4961C113.4 77.5454 113.523 77.5947 113.649 77.6587C114.12 77.9574 114.571 78.324 115.015 78.752C115.672 79.4214 116.295 80.1413 116.925 80.8453L117.339 81.2547C117.049 80.8547 116.776 80.4453 116.533 80.02C116.239 79.4387 116.041 78.8707 115.932 78.3187C115.933 78.1667 115.96 78.048 116.001 77.9467L115.236 77.5907L114.964 76.6614L115.653 76.2507L116.643 77.636L118.813 80.1627C119.316 80.5507 119.779 81.0201 120.201 81.5707L120.773 82.4227L121.148 83.316C121.064 83.772 120.824 84.0454 120.429 84.1347C120.273 84.0734 120.117 83.9921 119.964 83.9014C120.293 84.2574 120.613 84.6254 120.928 85.0054C121.364 85.5147 121.776 86.0454 122.184 86.58C122.743 87.2814 123.311 87.9734 123.904 88.6414C123.729 88.4094 123.561 88.1734 123.403 87.928C123.04 87.296 122.789 86.6707 122.629 86.052C122.663 85.4934 122.953 85.3014 123.536 85.5347L125.793 88.0507C126.333 88.472 126.828 88.9734 127.272 89.5681L127.86 90.4907L128.077 91.4054C127.875 91.7987 127.52 91.9587 127.017 91.8907C126.828 91.7387 126.647 91.572 126.468 91.3974C127.036 92.1587 127.465 92.9467 127.776 93.7601L127.868 93.7694C128.328 94.0827 128.768 94.4667 129.192 94.9147C129.611 95.3733 130.009 95.856 130.397 96.3533C130.807 96.8493 131.193 97.3587 131.581 97.8747C131.985 98.4094 132.383 98.9307 132.785 99.464C133.211 100.012 133.607 100.569 133.999 101.141L134.232 101.503C134.264 101.535 134.303 101.561 134.331 101.599C134.713 101.949 135.101 102.305 135.499 102.669L137.523 105.356C138.117 105.737 138.645 106.259 139.116 106.901C139.805 107.825 140.613 108.723 140.756 109.772L140.723 109.761C140.795 110.191 140.747 110.516 140.611 110.765C140.768 110.955 140.839 111.193 140.805 111.487L141.092 111.835C141.165 112.973 142.336 114.06 142.723 115.188C142.673 115.671 142.472 115.989 142.123 116.155C141.481 116.221 140.749 116.005 139.976 115.668C139.184 115.312 138.408 114.72 137.637 114.055C137.293 113.677 137.096 113.321 137.031 112.983C136.713 112.883 136.383 112.731 136.036 112.516C135.701 112.252 135.371 111.973 135.043 111.684L135.06 111.789C134.972 111.881 134.877 111.965 134.783 112.048L134.792 112.084C134.953 112.785 135.023 113.468 135.315 114.216C135.583 114.669 135.883 115.104 136.244 115.505L136.461 115.727C136.463 115.507 136.547 115.336 136.791 115.263C136.901 115.065 137.044 114.904 137.217 114.781C138.181 115.028 138.844 115.852 139.375 116.937C139.405 117.057 139.424 117.171 139.443 117.284C139.467 117.217 139.485 117.164 139.485 117.164C140.008 117.639 140.347 118.179 140.504 118.788C140.528 119.352 140.256 119.527 139.735 119.373L139.169 118.661C139.137 118.679 139.109 118.703 139.075 118.716L139.476 119.235L139.644 119.432L139.735 119.375L140.539 119.899L140.684 120.379C140.781 120.131 140.948 119.955 141.208 119.876C141.325 119.871 141.447 119.885 141.567 119.897L141.395 119.505C141.473 119.084 141.671 118.791 141.984 118.619C142.364 118.545 142.799 118.633 143.295 118.9C143.763 119.375 144.064 119.895 144.223 120.451C144.241 120.825 144.117 121.028 143.872 121.083L144.215 121.444C144.6 122.065 144.788 122.637 144.752 123.151C144.669 123.351 144.56 123.505 144.423 123.615C144.568 123.713 144.711 123.809 144.864 123.913L145.287 124.113L145.532 123.991C145.701 124.131 145.852 124.285 145.992 124.447C146.291 124.587 146.591 124.728 146.895 124.895C147.384 125.231 147.852 125.621 148.309 126.069C148.989 126.764 149.615 127.512 150.212 128.285C150.607 128.783 150.972 129.303 151.317 129.824C151.643 130.324 151.932 130.841 152.187 131.353L152.276 131.54C152.408 131.484 152.593 131.5 152.835 131.592C153.235 131.884 153.505 132.223 153.655 132.604C153.764 132.584 153.845 132.597 153.891 132.653C155.524 133.536 156.748 135.024 157.787 136.784C158.027 137.279 158.191 137.753 158.279 138.205V138.203C158.86 138.649 159.236 139.192 159.411 139.833C159.439 140.399 159.188 140.627 158.671 140.532L159.161 141.145C159.961 142.132 160.752 143.121 161.573 144.087C162.013 144.557 162.445 145.02 162.887 145.492C163.588 146.136 164.303 146.792 165.017 147.448C166.001 148.353 166.911 149.355 167.784 150.403C168.227 150.909 168.64 151.441 169.057 151.968C169.661 152.736 170.268 153.505 170.871 154.271C171.267 154.745 171.648 155.239 172.027 155.724L173.189 157.087C173.811 157.704 174.457 158.26 175.121 158.776C175.576 159.136 176.008 159.536 176.433 159.961C176.861 160.395 177.267 160.851 177.664 161.319C178.071 161.779 178.459 162.255 178.844 162.733C179.239 163.211 179.628 163.683 180.021 164.157C180.432 164.624 180.837 165.084 181.251 165.553C181.704 165.989 182.145 166.416 182.605 166.86C183.353 167.488 184.092 168.113 184.835 168.78C186.157 170.013 187.353 171.389 188.547 172.779C189.057 173.344 189.545 173.925 190.031 174.513C190.543 175.093 191.029 175.689 191.516 176.287C194.183 179.763 197.312 182.435 200.464 185.079C200.905 185.452 201.328 185.857 201.745 186.273C201.811 186.152 201.891 186.041 202.001 185.956C202.433 185.861 202.928 185.921 203.497 186.156C204.379 186.656 205.199 187.368 205.992 188.181C206.52 188.716 207.021 189.279 207.516 189.852C208.025 190.421 208.507 191.011 208.983 191.608C209.947 192.836 210.839 194.079 211.283 195.412C211.353 195.867 211.253 196.121 210.987 196.179C210.8 196.219 210.66 196.217 210.564 196.181C210.637 196.233 210.701 196.279 210.776 196.332C211.341 196.748 211.9 197.22 212.443 197.708C212.96 198.188 213.452 198.721 213.919 199.272C214.351 199.812 214.741 200.383 215.096 200.959C215.484 201.624 215.896 202.285 216.376 202.924C216.483 202.773 216.589 202.621 216.687 202.46L215.536 201.132L215.901 201.101L215.839 200.271L216.615 200.391C217.063 200.771 217.325 201.148 217.411 201.531C218.241 201.988 218.961 202.829 219.741 203.463C220.295 203.979 220.765 204.559 221.169 205.189C221.549 205.817 221.872 206.447 222.129 207.077L223.136 208.644C222.951 208.763 222.773 208.892 222.604 209.032C220.853 207.983 219.849 204.853 217.827 204.563C218.187 204.956 218.541 205.357 218.881 205.775C221.092 208.937 223.753 211.453 226.635 213.657C227.213 214.177 227.751 214.737 228.264 215.337C229 216.257 229.691 217.204 230.407 218.137L231.932 219.977C235.568 224.444 239.475 228.484 243.868 231.831C244.38 232.244 244.868 232.711 245.351 233.177L244.601 232.271L244.996 232.231L245.021 231.404L245.899 231.657C247.085 232.737 248.084 234.017 249.14 235.231C249.589 235.751 249.84 236.231 249.915 236.697C250.025 236.684 250.109 236.697 250.16 236.764C251.031 237.391 251.772 238.151 252.272 239.124C252.4 239.724 252.257 240.084 251.796 240.164L249.181 237.671L249.545 237.577L247.555 235.671C248.113 236.391 248.619 237.124 249.087 237.871C254.027 244.191 259.145 250.311 265.18 255.497C271.903 262.351 277.572 270.337 284.94 276.471C290.827 282.497 295.891 289.391 302.255 294.924L302.508 295.124C302.011 294.071 301.137 292.937 300.939 291.951C302.681 291.391 303.671 294.271 305.12 295.057C307.225 297.311 310.66 299.111 310.151 302.257C308.787 301.297 307.28 301.017 306.095 299.231C307.161 302.764 309.571 305.977 312.436 309.137L333.248 331.991C335.911 333.311 337.769 335.884 339.795 338.191L343.521 341.924C345.437 343.297 346.876 345.177 348.381 347.004C349.473 348.417 350.599 349.817 351.752 351.177L354.305 353.791L357.603 357.617C358.94 358.977 360.305 360.337 361.705 361.644C362.799 362.617 363.768 363.711 364.763 364.791L373.943 374.817L383.371 385.097C386.127 388.257 389.248 391.124 391.716 394.524C391.673 394.671 391.633 394.804 391.592 394.951L412.313 416.977L413.311 418.497L413.411 418.137L416.909 422.377L418.312 423.417L421.537 427.177C422.521 428.111 423.521 429.017 424.529 429.911C425.471 430.711 426.309 431.577 426.832 432.657C429.895 438.297 434.856 442.791 439.229 447.631C441.689 450.364 444.539 452.884 446.02 456.137C449.483 458.604 451.751 462.711 455.281 465.071C460.564 469.537 463.565 475.084 467.144 480.351C467.708 480.551 468.235 480.924 468.725 481.497C469.387 482.351 469.993 483.231 470.636 484.097C471.347 485.004 472.007 485.911 472.56 486.857L472.575 486.897C472.612 486.871 472.66 486.857 472.727 486.871C473 486.897 473.207 486.991 473.349 487.151L474.695 488.444C475.237 488.711 475.753 489.097 476.236 489.604L477.64 491.097L479.736 493.364C480.207 493.897 480.539 494.444 480.711 494.991L480.385 494.911C478.703 494.844 476.208 491.297 474.888 492.791L474.032 492.591C472.865 491.857 472.013 490.937 471.527 489.817C471.52 490.097 471.473 490.337 471.388 490.564L472.855 492.404L474.18 493.764C474.005 493.884 473.843 494.017 473.693 494.164L472.353 492.831C471.92 492.484 471.484 492.151 471.045 491.817L470.603 491.311L470.533 491.351C470.353 491.351 470.164 491.337 469.972 491.311C470.709 492.951 471.871 494.831 470.047 495.044C469.396 494.764 468.744 494.364 468.105 493.831C466.659 492.417 465.196 490.991 463.941 489.377C464.844 490.684 466.077 491.737 467.117 492.951C469.049 495.217 471.488 497.044 473.127 499.564C473.571 500.284 473.859 500.977 474.023 501.657L473.673 502.284C473.149 502.364 472.541 502.244 471.857 501.924C471.257 501.617 470.661 501.257 470.069 500.844C470.036 501.204 469.915 501.497 469.7 501.711C469.387 501.897 468.993 501.951 468.543 501.911C467.84 501.777 467.1 501.484 466.325 501.031C465.589 500.564 464.884 499.977 464.195 499.351C463.756 498.951 463.324 498.537 462.9 498.097L462.261 497.471C461.087 496.924 459.863 495.724 458.685 495.164C460.493 497.884 463.033 500.457 464.041 503.337C466.068 510.404 473.344 515.871 477.429 522.311C477.261 522.497 477.099 522.684 476.941 522.871C474.543 521.884 473.169 518.924 470.961 517.591C468.228 515.657 466.084 512.804 463.507 510.644C462.635 509.911 461.832 509.097 461.204 508.164Z" fill="#B85E39"/>
</svg>
